<svg width="386" height="234" viewBox="0 0 386 234" fill="none" xmlns="http://www.w3.org/2000/svg">
<g clip-path="url(#clip0_8_2588)">
<mask id="mask0_8_2588" style="mask-type:luminance" maskUnits="userSpaceOnUse" x="0" y="0" width="386" height="234">
<path d="M386 0H0V234H386V0Z" fill="white"/>
</mask>
<g mask="url(#mask0_8_2588)">
<path d="M93.4956 50.1692H121.724V120.849H93.4956V50.1692Z" fill="#EC268F"/>
<path d="M135.197 50.1691H161.723V63.4665C162.898 61.5031 164.494 59.6028 166.37 57.7655C168.242 55.9331 170.345 54.3285 172.676 52.9517C175.007 51.575 177.488 50.4745 180.124 49.6456C182.76 48.8166 185.429 48.3997 188.128 48.3997C190.26 48.3997 192.364 48.7051 194.434 49.3159C196.504 49.9267 198.477 50.843 200.348 52.0646C202.22 53.2862 203.942 54.7939 205.508 56.5827C207.075 58.3763 208.425 60.4706 209.561 62.8702C210.91 60.7711 212.666 58.8417 214.823 57.0723C216.98 55.3029 219.364 53.7758 221.98 52.4863C224.596 51.1968 227.372 50.1934 230.313 49.4711C233.253 48.7536 236.184 48.39 239.1 48.39C243.805 48.39 247.8 49.0687 251.093 50.4212C254.382 51.7737 257.037 53.6934 259.063 56.1852C261.089 58.6721 262.56 61.6631 263.474 65.1583C264.388 68.6535 264.847 72.5172 264.847 76.7541V120.839H236.619V80.8795C236.619 79.6143 236.479 78.1599 236.193 76.5214C235.908 74.8829 235.376 73.3316 234.593 71.8724C233.809 70.4084 232.731 69.1771 231.357 68.1736C229.984 67.1701 228.19 66.666 225.965 66.666C224.437 66.666 223.001 67.0392 221.651 67.7809C220.302 68.5226 219.103 69.5067 218.058 70.7284C217.013 71.95 216.182 73.351 215.577 74.9216C214.968 76.4923 214.663 78.1115 214.663 79.7694V120.839H186.435V80.8795C186.435 79.0907 186.271 77.3407 185.947 75.6391C185.623 73.9376 185.066 72.4202 184.283 71.0871C183.5 69.754 182.431 68.6875 181.082 67.8779C179.732 67.0732 178.03 66.666 175.984 66.666C174.548 66.666 173.078 66.9374 171.574 67.4852C170.07 68.033 168.721 68.7747 167.521 69.7103C166.322 70.6508 165.34 71.7755 164.581 73.0844C163.817 74.3932 163.44 75.8136 163.44 77.3407V120.835H135.207V50.1691H135.197Z" fill="#EC268F"/>
<path d="M122.739 19.0322C122.739 27.5497 115.853 34.4528 107.356 34.4528C98.8588 34.4528 91.9722 27.5497 91.9722 19.0322C91.9722 10.5147 98.8588 3.61157 107.356 3.61157C115.853 3.61157 122.739 10.5147 122.739 19.0322Z" fill="#EC268F"/>
<path d="M79.5581 81.2334V0H51.2864V45.5008C47.8819 44.5361 44.2935 44.0465 40.5069 44.0465C29.0792 44.0465 19.47 47.8374 11.6839 55.4144C3.89303 62.9914 0 72.333 0 83.4343C0 94.5356 3.89303 103.649 11.6839 111.377C19.47 119.109 28.8519 122.972 39.825 122.972C50.798 122.972 60.1655 119.118 67.9322 111.415C75.6941 103.712 79.5581 94.3805 79.5581 83.4343V81.2334ZM39.4865 97.2552C31.8455 97.2552 25.6505 91.0452 25.6505 83.381C25.6505 75.7167 31.8455 69.5116 39.4865 69.5116C47.1274 69.5116 53.3273 75.7216 53.3273 83.381C53.3273 91.0404 47.1323 97.2552 39.4865 97.2552Z" fill="#383738"/>
<path d="M352.206 63.8591C350.498 61.0086 348.39 58.323 345.861 55.8119C338.099 48.104 328.731 44.2549 317.753 44.2549C306.776 44.2549 297.399 48.1185 289.612 55.8507C281.822 63.5828 277.929 72.8953 277.929 83.793C277.929 94.6907 281.822 104.236 289.612 111.813C297.399 119.39 307.008 123.181 318.435 123.181C329.157 123.181 338.345 119.317 346.011 111.585C346.886 110.698 347.708 109.791 348.482 108.87L358.101 123.079L381.561 107.338L352.206 63.8543V63.8591ZM317.42 97.7157C309.774 97.7157 303.579 91.5057 303.579 83.8415C303.579 76.1772 309.774 69.9721 317.42 69.9721C325.066 69.9721 331.256 76.182 331.256 83.8415C331.256 91.5009 325.061 97.7157 317.42 97.7157Z" fill="#383738"/>
<path d="M1.0011 233.806V214.134H5.88069C7.58298 214.134 8.89839 214.565 9.83175 215.428C10.7651 216.291 11.2342 217.557 11.2342 219.224V228.721C11.2342 230.388 10.7651 231.649 9.83175 232.502C8.89839 233.355 7.57814 233.792 5.88069 233.811H1.0011V233.806ZM3.49651 231.896H5.88069C6.7415 231.896 7.4379 231.649 7.96986 231.15C8.50183 230.655 8.76781 229.991 8.76781 229.167V218.768C8.76781 217.944 8.50183 217.285 7.96986 216.786C7.4379 216.291 6.7415 216.039 5.88069 216.039H3.49651V231.891V231.896Z" fill="#383738"/>
<path d="M24.3834 228.944C24.3834 230.534 23.924 231.775 23.01 232.667C22.096 233.559 20.7612 234 19.0154 234C17.2696 234 15.9348 233.554 15.0208 232.667C14.1068 231.78 13.6474 230.534 13.6474 228.944V218.996C13.6474 217.406 14.1068 216.165 15.0208 215.273C15.9348 214.386 17.2696 213.94 19.0154 213.94C20.7612 213.94 22.096 214.386 23.01 215.273C23.924 216.165 24.3834 217.406 24.3834 218.996V228.944ZM16.1138 229.419C16.1138 230.282 16.3894 230.951 16.9407 231.426C17.492 231.906 18.1788 232.143 19.0009 232.143C19.823 232.143 20.5146 231.906 21.0756 231.426C21.6365 230.946 21.917 230.277 21.917 229.419V218.516C21.917 217.653 21.6365 216.984 21.0756 216.509C20.5146 216.034 19.823 215.792 19.0009 215.792C18.1788 215.792 17.492 216.029 16.9407 216.509C16.3894 216.989 16.1138 217.658 16.1138 218.516V229.419Z" fill="#383738"/>
<path d="M38.5966 233.806H35.0663L29.882 215.933V233.806H27.4156V214.134H31.536L36.1061 231.135V214.134H38.6015V233.806H38.5966Z" fill="#383738"/>
<path d="M51.9393 233.806H46.9775C45.2752 233.806 43.9598 233.375 43.0265 232.512C42.0931 231.649 41.624 230.384 41.624 228.716V219.19C41.624 217.542 42.1269 216.286 43.1377 215.424C44.1436 214.561 45.5219 214.129 47.258 214.129H51.3783V216.01H46.9775C46.1167 216.01 45.4203 216.257 44.8883 216.757C44.3564 217.256 44.0904 217.915 44.0904 218.739V229.22C44.0904 230.064 44.3419 230.728 44.8496 231.217C45.3526 231.702 46.0248 231.949 46.8663 231.949H49.4729V224.222H46.9485V222.365H51.9393V233.801V233.806Z" fill="#383738"/>
<path d="M54.0237 224.145V222.288H60.5282V224.145H54.0237Z" fill="#383738"/>
<path d="M65.1176 214.134H68.8462L73.1068 233.806H70.8096L69.4362 228.018H64.3341L63.0719 233.806H60.6877L65.1176 214.134ZM69.0154 226.103L66.9988 215.986H66.8005L64.7549 226.103H69.0154Z" fill="#383738"/>
<path d="M83.7606 224.305H78.1798V233.801H75.7134V214.129H78.1798V222.448H83.7606V214.129H86.227V233.801H83.7606V224.305Z" fill="#383738"/>
<path d="M94.5257 233.806V214.134H96.9921V233.806H94.5257Z" fill="#383738"/>
<path d="M112.047 233.806H108.516L103.327 215.933V233.806H100.861V214.134H104.981L109.551 231.135V214.134H112.047V233.806Z" fill="#383738"/>
<path d="M120.95 230.994C121.429 230.359 121.666 229.618 121.666 228.774C121.666 227.931 121.511 227.213 121.201 226.627C120.892 226.035 120.505 225.57 120.036 225.221C119.567 224.877 119.064 224.494 118.522 224.082C117.981 223.67 117.473 223.272 117.009 222.889C116.539 222.506 116.153 221.983 115.843 221.328C115.534 220.674 115.379 219.922 115.379 219.079C115.379 217.581 115.829 216.379 116.723 215.482C117.623 214.58 118.866 214.134 120.452 214.134H122.725V215.991H120.563C119.664 215.991 118.986 216.282 118.517 216.863C118.053 217.445 117.816 218.07 117.816 218.744C117.816 219.418 117.971 220 118.28 220.485C118.59 220.974 118.977 221.377 119.446 221.692C119.915 222.012 120.423 222.385 120.974 222.816C121.525 223.248 122.033 223.684 122.502 224.125C122.971 224.566 123.358 225.163 123.668 225.909C123.977 226.656 124.132 227.509 124.132 228.469C124.132 230.229 123.634 231.557 122.633 232.458C121.632 233.36 120.263 233.806 118.527 233.806H115.582V231.949H118.638C119.702 231.949 120.476 231.629 120.95 230.994Z" fill="#383738"/>
<path d="M129.316 233.806V215.991H125.394V214.134H135.71V215.991H131.783V233.806H129.316Z" fill="#383738"/>
<path d="M138.316 233.806V214.134H140.783V233.806H138.316Z" fill="#383738"/>
<path d="M147.316 233.806V215.991H143.389V214.134H153.705V215.991H149.778V233.806H147.311H147.316Z" fill="#383738"/>
<path d="M155.475 214.134H157.941V229.424C157.941 230.325 158.163 231.004 158.599 231.46C159.039 231.92 159.648 232.148 160.436 232.148C161.225 232.148 161.839 231.92 162.289 231.46C162.738 230.999 162.961 230.321 162.961 229.424V214.134H165.427V228.944C165.427 232.313 163.768 234 160.451 234C157.133 234 155.475 232.313 155.475 228.944V214.134Z" fill="#383738"/>
<path d="M171.114 233.806V215.991H167.188V214.134H177.503V215.991H173.576V233.806H171.11H171.114Z" fill="#383738"/>
<path d="M180.114 233.806V214.134H188.664V216.044H182.581V222.341H187.513V224.251H182.581V231.896H188.945V233.806H180.114Z" fill="#383738"/>
<path d="M206.215 228.944C206.215 230.534 205.755 231.775 204.841 232.667C203.927 233.559 202.592 234 200.847 234C199.101 234 197.766 233.554 196.852 232.667C195.938 231.78 195.479 230.534 195.479 228.944V218.996C195.479 217.406 195.938 216.165 196.852 215.273C197.766 214.386 199.101 213.94 200.847 213.94C202.592 213.94 203.927 214.386 204.841 215.273C205.755 216.165 206.215 217.406 206.215 218.996V228.944ZM197.945 229.419C197.945 230.282 198.221 230.951 198.772 231.426C199.323 231.906 200.01 232.143 200.832 232.143C201.654 232.143 202.346 231.906 202.907 231.426C203.468 230.946 203.748 230.277 203.748 229.419V218.516C203.748 217.653 203.468 216.984 202.907 216.509C202.346 216.034 201.654 215.792 200.832 215.792C200.01 215.792 199.323 216.029 198.772 216.509C198.221 216.989 197.945 217.658 197.945 218.516V229.419Z" fill="#383738"/>
<path d="M209.469 233.806V214.134H217.739V216.044H211.936V222.787H216.307V224.697H211.936V233.801H209.469V233.806Z" fill="#383738"/>
<path d="M226.739 233.806H224.272V214.134H228.001L231.759 225.769H231.957L235.797 214.134H239.385V233.806H236.919V217.086L233.161 228.58H230.496L226.739 217.057V233.806Z" fill="#383738"/>
<path d="M243.191 233.806V214.134H251.741V216.044H245.657V222.341H250.59V224.251H245.657V231.896H252.022V233.806H243.191Z" fill="#383738"/>
<path d="M255.165 233.806V214.134H260.045C261.747 214.134 263.062 214.565 263.996 215.428C264.929 216.291 265.398 217.557 265.398 219.224V228.721C265.398 230.388 264.929 231.649 263.996 232.502C263.062 233.355 261.742 233.792 260.045 233.811H255.165V233.806ZM257.661 231.896H260.045C260.906 231.896 261.602 231.649 262.134 231.15C262.666 230.655 262.932 229.991 262.932 229.167V218.768C262.932 217.944 262.666 217.285 262.134 216.786C261.602 216.291 260.906 216.039 260.045 216.039H257.661V231.891V231.896Z" fill="#383738"/>
<path d="M268.648 233.806V214.134H271.115V233.806H268.648Z" fill="#383738"/>
<path d="M278.151 214.134H281.88L286.14 233.806H283.843L282.47 228.018H277.368L276.105 233.806H273.721L278.151 214.134ZM282.049 226.103L280.032 215.986H279.834L277.788 226.103H282.049Z" fill="#383738"/>
<path d="M295.899 214.134H299.628L303.888 233.806H301.591L300.218 228.018H295.116L293.854 233.806H291.469L295.899 214.134ZM299.792 226.103L297.771 215.986H297.573L295.527 226.103H299.788H299.792Z" fill="#383738"/>
<path d="M317.459 233.806H313.928L308.744 215.933V233.806H306.278V214.134H310.398L314.968 231.135V214.134H317.463V233.806H317.459Z" fill="#383738"/>
<path d="M321.298 233.806V214.134H326.178C327.88 214.134 329.196 214.565 330.129 215.428C331.062 216.291 331.531 217.557 331.531 219.224V228.721C331.531 230.388 331.062 231.649 330.129 232.502C329.196 233.355 327.875 233.792 326.178 233.811H321.298V233.806ZM323.794 231.896H326.178C327.039 231.896 327.735 231.649 328.267 231.15C328.799 230.655 329.065 229.991 329.065 229.167V218.768C329.065 217.944 328.799 217.285 328.267 216.786C327.735 216.291 327.039 216.039 326.178 216.039H323.794V231.891V231.896Z" fill="#383738"/>
<path d="M341.929 214.134H345.658L349.918 233.806H347.621L346.248 228.018H341.146L339.883 233.806H337.499L341.929 214.134ZM345.827 226.103L343.81 215.986H343.612L341.566 226.103H345.827Z" fill="#383738"/>
<path d="M354.938 225.177V233.806H352.525V214.134H357.709C361.075 214.134 362.753 215.874 362.753 219.36C362.753 220.674 362.502 221.813 361.999 222.787C361.496 223.762 360.775 224.435 359.842 224.809L363.74 233.801H361.326L357.516 225.172H354.938V225.177ZM354.996 215.986V223.32H356.988C358.052 223.32 358.879 222.952 359.469 222.21C360.059 221.469 360.354 220.518 360.354 219.36C360.354 217.111 359.232 215.986 356.988 215.986H354.996Z" fill="#383738"/>
<path d="M368.788 233.806V215.991H364.862V214.134H375.177V215.991H371.25V233.806H368.784H368.788Z" fill="#383738"/>
<path d="M382.818 230.994C383.297 230.359 383.534 229.618 383.534 228.774C383.534 227.931 383.379 227.213 383.069 226.627C382.76 226.04 382.373 225.57 381.904 225.221C381.435 224.877 380.932 224.494 380.39 224.082C379.849 223.67 379.346 223.272 378.876 222.889C378.407 222.506 378.02 221.983 377.711 221.328C377.401 220.674 377.247 219.922 377.247 219.079C377.247 217.581 377.696 216.379 378.591 215.482C379.491 214.58 380.729 214.134 382.32 214.134H384.593V215.991H382.436C381.536 215.991 380.854 216.282 380.39 216.863C379.921 217.445 379.689 218.07 379.689 218.744C379.689 219.418 379.844 220 380.153 220.485C380.463 220.974 380.85 221.377 381.319 221.692C381.783 222.012 382.296 222.385 382.847 222.816C383.398 223.248 383.906 223.684 384.375 224.125C384.844 224.566 385.231 225.163 385.541 225.909C385.85 226.656 386.005 227.509 386.005 228.469C386.005 230.229 385.507 231.557 384.506 232.458C383.505 233.36 382.136 233.806 380.4 233.806H377.455V231.949H380.511C381.575 231.949 382.349 231.629 382.823 230.994H382.818Z" fill="#383738"/>
<path d="M24.219 173.893C24.219 173.893 24.2045 173.815 24.2045 173.718V169.564H35.9852V164.178H12.2111C12.0515 164.178 11.9596 164.164 11.9112 164.154C11.9016 164.115 11.8919 164.038 11.8919 163.907V158.623C11.8919 158.501 11.8967 158.419 11.9064 158.361C11.9451 158.356 11.9934 158.351 12.0708 158.351H35.8014V152.917H10.2186C8.91768 152.917 7.92145 153.314 7.26375 154.09C6.60604 154.822 6.27235 155.84 6.27235 157.12V165.317C6.27235 166.67 6.64473 167.727 7.38465 168.468C8.14875 169.196 9.23202 169.564 10.6055 169.564H18.585V173.718C18.585 173.762 18.585 173.796 18.5802 173.815L18.5415 173.84L18.5173 173.888C18.5173 173.888 18.4834 173.888 18.4593 173.888H1.18481V179.129H15.8478C15.0547 179.57 14.3051 180.113 13.5942 180.762C11.3744 182.852 10.2476 185.416 10.2476 188.388C10.2476 191.199 11.3938 193.652 13.6474 195.679C15.8575 197.691 18.4883 198.713 21.4673 198.713C24.4463 198.713 26.9949 197.691 29.2388 195.679C31.5263 193.618 32.687 191.165 32.687 188.388C32.687 185.416 31.5118 182.847 29.1905 180.757C28.4844 180.113 27.73 179.57 26.9369 179.129H41.6095V173.888H24.2287C24.2287 173.888 24.219 173.888 24.2142 173.888L24.219 173.893ZM25.4232 191.844C24.3206 192.862 22.9568 193.376 21.3706 193.376C19.7843 193.376 18.4206 192.862 17.3131 191.839C16.1911 190.836 15.6205 189.609 15.6205 188.194C15.6205 186.778 16.1573 185.498 17.2212 184.495C18.3239 183.477 19.707 182.963 21.3222 182.963C22.9375 182.963 24.2625 183.482 25.428 184.495C26.5548 185.537 27.1255 186.778 27.1255 188.194C27.1255 189.609 26.5548 190.836 25.428 191.844H25.4232Z" fill="#383738"/>
<path d="M55.0973 155.53C51.7217 155.53 48.7765 156.732 46.3392 159.107C43.8679 161.551 42.6154 164.522 42.6154 167.945C42.6154 171.367 43.8873 174.227 46.3924 176.632C48.8587 179.036 51.8087 180.258 55.1505 180.258C58.4922 180.258 61.3696 179.036 63.8022 176.637C66.3459 174.227 67.6323 171.304 67.6323 167.945C67.6323 164.585 66.3605 161.546 63.8505 159.103C61.3841 156.732 58.4341 155.53 55.0973 155.53ZM59.9623 172.608C58.5792 173.961 56.9446 174.649 55.0973 174.649C53.2499 174.649 51.6153 173.961 50.2322 172.608C48.8878 171.29 48.2059 169.705 48.2059 167.892C48.2059 166.078 48.8732 164.387 50.1838 163.068C51.4992 161.749 53.1338 161.08 55.0441 161.08C56.9543 161.08 58.5115 161.749 59.8656 163.078C61.2729 164.396 61.9838 166.011 61.9838 167.887C61.9838 169.763 61.3019 171.256 59.9575 172.603L59.9623 172.608Z" fill="#383738"/>
<path d="M77.1981 164.837C77.1884 164.774 77.1739 164.653 77.1739 164.445V152.81H71.4142V197.831H77.1739V170.572C77.1739 170.34 77.1836 170.194 77.1932 170.112C77.2319 170.112 77.2803 170.107 77.348 170.107H84.3506V164.866H77.4447C77.3142 164.866 77.2368 164.857 77.1932 164.842L77.1981 164.837Z" fill="#383738"/>
<path d="M117.913 180.762C115.703 178.75 113.072 177.728 110.088 177.728C107.104 177.728 104.527 178.75 102.312 180.767C100.092 182.856 98.9652 185.421 98.9652 188.393C98.9652 191.204 100.111 193.657 102.365 195.684C104.575 197.695 107.206 198.718 110.19 198.718C113.174 198.718 115.717 197.695 117.961 195.684C120.249 193.623 121.409 191.17 121.409 188.393C121.409 185.421 120.234 182.852 117.913 180.762ZM114.146 191.844C113.043 192.862 111.679 193.376 110.088 193.376C108.497 193.376 107.138 192.862 106.031 191.839C104.909 190.836 104.338 189.609 104.338 188.194C104.338 186.778 104.875 185.498 105.939 184.495C107.041 183.477 108.425 182.963 110.04 182.963C111.655 182.963 112.98 183.482 114.146 184.495C115.272 185.537 115.843 186.778 115.843 188.194C115.843 189.609 115.272 190.836 114.146 191.844Z" fill="#383738"/>
<path d="M121.622 161.614C121.612 161.551 121.603 161.43 121.603 161.226V152.805H115.94V177.466H121.603V167.349C121.603 167.13 121.612 166.985 121.622 166.888C121.685 166.888 121.767 166.878 121.878 166.878H128.397V161.638H121.98C121.796 161.638 121.69 161.623 121.632 161.609L121.622 161.614Z" fill="#383738"/>
<path d="M109.339 174.494C109.953 173.733 110.262 172.705 110.262 171.435V153.925H104.744V159.602C104.744 159.772 104.73 159.864 104.715 159.907C104.691 159.912 104.643 159.922 104.57 159.922H94.8255C94.6611 159.922 94.5692 159.907 94.5257 159.898C94.516 159.864 94.5063 159.801 94.5063 159.699V153.925H88.94V171.629C88.94 172.87 89.2689 173.888 89.9218 174.649C90.623 175.464 91.6337 175.876 92.9346 175.876H106.461C107.709 175.876 108.681 175.405 109.339 174.489V174.494ZM104.744 170.218C104.744 170.369 104.71 170.485 104.638 170.577C104.638 170.577 104.619 170.587 104.565 170.587H94.869C94.6901 170.587 94.6079 170.563 94.5837 170.553L94.5354 170.5C94.5257 170.475 94.5015 170.398 94.5015 170.218V165.531C94.5015 165.39 94.5063 165.293 94.516 165.22C94.5837 165.216 94.6853 165.211 94.8255 165.211H104.57C104.633 165.211 104.686 165.211 104.72 165.216C104.73 165.283 104.744 165.395 104.744 165.579V170.218Z" fill="#383738"/>
<path d="M152.737 173.791C152.737 173.791 152.737 173.748 152.737 173.719V166.922H147.123V173.719C147.123 173.748 147.123 173.767 147.123 173.777L147.113 173.786C147.113 173.786 147.055 173.796 147.002 173.796H129.723V179.085H144.56C143.737 179.536 142.954 180.093 142.214 180.767C139.994 182.857 138.868 185.421 138.868 188.393C138.868 191.204 140.014 193.657 142.267 195.684C144.477 197.695 147.108 198.718 150.092 198.718C153.076 198.718 155.62 197.695 157.864 195.684C160.151 193.623 161.312 191.17 161.312 188.393C161.312 185.421 160.137 182.852 157.815 180.762C157.08 180.093 156.297 179.536 155.47 179.085H170.152V173.796H152.82C152.791 173.796 152.766 173.796 152.747 173.796L152.737 173.791ZM154.033 191.844C152.931 192.862 151.567 193.376 149.976 193.376C148.385 193.376 147.026 192.862 145.919 191.839C144.797 190.836 144.226 189.609 144.226 188.194C144.226 186.778 144.763 185.499 145.827 184.495C146.929 183.477 148.312 182.963 149.928 182.963C151.543 182.963 152.868 183.482 154.033 184.495C155.16 185.537 155.731 186.778 155.731 188.194C155.731 189.609 155.16 190.836 154.033 191.844Z" fill="#383738"/>
<path d="M325.153 175.119C327.44 173.059 328.601 170.606 328.601 167.828C328.601 165.569 327.919 163.543 326.574 161.783H330.932V156.494H320.109C320.08 156.494 320.051 156.494 320.036 156.494C320.036 156.475 320.036 156.451 320.036 156.422V151.584H314.421V156.422C314.421 156.446 314.421 156.47 314.421 156.48L314.412 156.49C314.412 156.49 314.354 156.499 314.296 156.499H303.526V161.788H308.106C306.814 163.548 306.161 165.574 306.161 167.833C306.161 170.645 307.303 173.098 309.561 175.124C311.771 177.136 314.402 178.159 317.386 178.159C320.37 178.159 322.914 177.136 325.158 175.124L325.153 175.119ZM313.227 171.28C312.105 170.277 311.534 169.05 311.534 167.635C311.534 166.219 312.076 164.939 313.135 163.936C314.238 162.918 315.621 162.404 317.236 162.404C318.851 162.404 320.176 162.923 321.342 163.936C322.469 164.978 323.039 166.219 323.039 167.635C323.039 169.05 322.469 170.277 321.342 171.285C320.239 172.303 318.875 172.817 317.284 172.817C315.693 172.817 314.334 172.303 313.227 171.28Z" fill="#383738"/>
<path d="M213.135 152.805H207.665V197.826H213.135V152.805Z" fill="#383738"/>
<path d="M217.458 176.399H234.462L234.554 176.356C234.612 176.356 234.675 176.37 234.709 176.39C234.713 176.414 234.723 176.457 234.723 176.53V179.075H222.164V183.71H246.983C247.113 183.71 247.205 183.734 247.253 183.782L247.278 183.802C247.336 183.85 247.35 183.981 247.35 184.078V185.639C247.35 185.954 247.292 186.041 247.292 186.041L247.234 186.119C247.234 186.119 247.19 186.148 247.036 186.148H223.924C222.807 186.148 221.685 186.725 221.685 188.494V193.749C221.685 194.889 221.999 195.853 222.614 196.619C223.349 197.501 224.364 197.952 225.631 197.952H253.792V193.318H227.276C227.218 193.318 227.179 193.313 227.155 193.308L227.13 193.279C227.121 193.255 227.101 193.172 227.101 192.998V191.107C227.101 190.884 227.111 190.739 227.121 190.652C227.155 190.652 227.208 190.642 227.276 190.642H249.357C250.503 190.642 252.965 190.08 252.965 186.638V181.383C252.965 180.297 252.534 179.07 250.464 179.07H240.289V176.525C240.289 176.443 240.299 176.394 240.304 176.365C240.328 176.36 240.372 176.351 240.439 176.351L240.56 176.39H257.888V171.808H217.458V176.394V176.399Z" fill="#383738"/>
<path d="M293.51 165.492H289.796C289.796 165.492 289.777 165.492 289.767 165.492V153.145H284.394V180.287C282.658 180.462 280.1 180.593 278.697 180.685C277.01 180.811 275.37 180.879 273.837 180.879H268.648C268.522 180.879 268.44 180.869 268.387 180.859C268.382 180.806 268.377 180.723 268.377 180.607V161.357H279.771V155.971H266.661C265.514 155.971 264.581 156.291 263.875 156.921C263.169 157.59 262.811 158.521 262.811 159.684V181.771C262.811 183.016 263.193 184.068 263.947 184.897C264.745 185.77 265.838 186.211 267.193 186.211H273.837C275.303 186.211 276.947 186.129 278.717 185.969C280.342 185.852 282.895 185.697 284.394 185.498V197.821H289.767V170.853C289.767 170.781 289.767 170.723 289.777 170.679H293.51C293.51 170.679 293.51 170.698 293.51 170.708V197.821H298.932V152.801H293.51V165.487V165.492Z" fill="#383738"/>
<path d="M335.555 180.719H309.735V186.104H333.229C333.63 186.104 333.751 186.182 333.766 186.192C333.766 186.192 333.843 186.289 333.843 186.667V197.739H339.506V184.965C339.506 183.695 339.192 182.677 338.573 181.945C337.872 181.131 336.856 180.719 335.56 180.719H335.555Z" fill="#383738"/>
<path d="M346.291 162.622H339.869C339.651 162.622 339.584 162.583 339.588 162.593L339.559 162.564C339.559 162.564 339.501 162.491 339.501 162.205V152.805H333.838V178.222H339.501V168.328C339.501 168.11 339.511 167.964 339.521 167.872C339.579 167.867 339.666 167.862 339.777 167.862H346.296V162.622H346.291Z" fill="#383738"/>
<path d="M374.389 160.731C374.389 160.731 374.447 160.838 374.447 161.245V180.631H380.158V159.35C380.158 158.361 379.81 157.474 379.123 156.717C378.422 155.903 377.537 155.491 376.497 155.491H349.817V160.731H374.268C374.35 160.731 374.389 160.746 374.384 160.731H374.389Z" fill="#383738"/>
<path d="M370.351 187.646C370.273 187.646 370.22 187.646 370.186 187.636C370.181 187.598 370.176 187.544 370.176 187.471V170.572H364.61V187.471C364.61 187.573 364.596 187.622 364.6 187.631C364.586 187.631 364.552 187.646 364.484 187.646H359.924C359.871 187.646 359.837 187.646 359.818 187.636C359.813 187.617 359.798 187.568 359.798 187.471V170.572H354.184V187.471C354.184 187.573 354.169 187.627 354.174 187.631C354.159 187.631 354.126 187.646 354.063 187.646H345.986V192.935H384.738V187.646H370.351Z" fill="#383738"/>
<path d="M199.077 159.825C199.077 159.854 199.077 159.873 199.077 159.883L199.062 159.898C199.062 159.898 199.028 159.898 198.999 159.898H192.514C192.311 159.67 192.103 159.452 191.88 159.234C189.506 156.955 186.677 155.801 183.466 155.801C180.255 155.801 177.392 156.955 175.051 159.238C172.676 161.585 171.472 164.44 171.472 167.732C171.472 171.023 172.696 173.767 175.099 176.079C177.474 178.392 180.303 179.565 183.514 179.565C186.725 179.565 189.491 178.392 191.827 176.084C191.924 175.992 192.016 175.9 192.108 175.808H198.999C198.999 175.808 199.043 175.808 199.057 175.808C199.067 175.861 199.077 175.944 199.077 176.079V197.826H204.449V153.145H199.077V159.825ZM188.142 172.216C186.812 173.515 185.241 174.174 183.466 174.174C181.691 174.174 180.119 173.515 178.789 172.216C177.498 170.95 176.84 169.423 176.84 167.683C176.84 165.943 177.479 164.314 178.741 163.049C180.003 161.783 181.575 161.139 183.413 161.139C185.25 161.139 186.745 161.783 188.045 163.058C189.4 164.324 190.081 165.88 190.081 167.683C190.081 169.486 189.424 170.921 188.133 172.216H188.142ZM199.077 170.635V170.66C199.077 170.66 199.028 170.66 198.999 170.66H195.14C195.387 169.724 195.512 168.745 195.512 167.727C195.512 166.796 195.411 165.899 195.217 165.041H198.999C198.999 165.041 199.028 165.041 199.038 165.041C199.057 165.085 199.077 165.172 199.077 165.308V170.626V170.635Z" fill="#383738"/>
<path d="M149.928 160.096L161.737 171.668L165.882 168.003L149.86 152.369L134.225 167.843L138.311 171.736L149.928 160.096Z" fill="#383738"/>
<path d="M237.543 159.098L249.352 169.748L253.071 165.981L237.475 151.981L222.304 165.981L225.926 169.811L237.543 159.098Z" fill="#383738"/>
</g>
</g>
<defs>
<clipPath id="clip0_8_2588">
<rect width="386" height="234" fill="white"/>
</clipPath>
</defs>
</svg>
