<svg width="390" height="845" viewBox="0 0 390 845" fill="none" xmlns="http://www.w3.org/2000/svg">
<g clip-path="url(#clip0_1_2658)">
<rect width="390" height="845" fill="white"/>
<rect width="390" height="845" fill="url(#paint0_linear_1_2658)"/>
<rect width="390" height="845" fill="white" fill-opacity="0.2"/>
<g clip-path="url(#clip1_1_2658)">
<path d="M146.295 334.305H159.97V368.546H146.295V334.305Z" fill="#EC268F"/>
<path d="M166.497 334.305H179.348V340.747C179.917 339.796 180.69 338.875 181.599 337.985C182.506 337.097 183.525 336.32 184.654 335.653C185.783 334.986 186.985 334.453 188.262 334.051C189.539 333.65 190.832 333.448 192.14 333.448C193.173 333.448 194.192 333.596 195.195 333.891C196.197 334.187 197.153 334.631 198.06 335.223C198.967 335.815 199.801 336.545 200.56 337.412C201.319 338.281 201.973 339.295 202.523 340.458C203.177 339.441 204.027 338.506 205.072 337.649C206.117 336.792 207.272 336.052 208.54 335.427C209.807 334.803 211.152 334.316 212.576 333.967C214.001 333.619 215.421 333.443 216.833 333.443C219.113 333.443 221.048 333.772 222.644 334.427C224.237 335.082 225.523 336.012 226.505 337.219C227.486 338.424 228.198 339.873 228.641 341.566C229.084 343.26 229.307 345.131 229.307 347.184V368.541H215.631V349.183C215.631 348.57 215.563 347.865 215.425 347.071C215.287 346.277 215.029 345.526 214.65 344.819C214.27 344.11 213.748 343.513 213.082 343.027C212.417 342.541 211.548 342.297 210.47 342.297C209.73 342.297 209.034 342.478 208.38 342.837C207.727 343.196 207.146 343.673 206.639 344.265C206.133 344.857 205.73 345.535 205.438 346.296C205.142 347.057 204.995 347.842 204.995 348.645V368.541H191.32V349.183C191.32 348.316 191.24 347.468 191.083 346.644C190.926 345.82 190.657 345.084 190.277 344.439C189.897 343.793 189.38 343.276 188.726 342.884C188.072 342.494 187.248 342.297 186.257 342.297C185.561 342.297 184.849 342.428 184.12 342.694C183.391 342.959 182.738 343.318 182.157 343.772C181.576 344.227 181.1 344.772 180.732 345.406C180.362 346.04 180.179 346.728 180.179 347.468V368.539H166.502V334.305H166.497Z" fill="#EC268F"/>
<path d="M160.462 319.22C160.462 323.347 157.126 326.691 153.009 326.691C148.893 326.691 145.557 323.347 145.557 319.22C145.557 315.094 148.893 311.75 153.009 311.75C157.126 311.75 160.462 315.094 160.462 319.22Z" fill="#EC268F"/>
<path d="M139.542 349.354V310H125.846V332.043C124.197 331.576 122.458 331.339 120.624 331.339C115.088 331.339 110.432 333.175 106.66 336.846C102.886 340.517 101 345.042 101 350.42C101 355.798 102.886 360.214 106.66 363.957C110.432 367.703 114.977 369.575 120.293 369.575C125.609 369.575 130.148 367.708 133.91 363.976C137.67 360.244 139.542 355.723 139.542 350.42V349.354ZM120.129 357.116C116.428 357.116 113.427 354.107 113.427 350.394C113.427 346.681 116.428 343.675 120.129 343.675C123.831 343.675 126.835 346.684 126.835 350.394C126.835 354.105 123.834 357.116 120.129 357.116Z" fill="#383738"/>
<path d="M271.628 340.937C270.801 339.556 269.779 338.255 268.554 337.038C264.794 333.304 260.256 331.44 254.937 331.44C249.619 331.44 245.076 333.311 241.304 337.057C237.53 340.803 235.644 345.315 235.644 350.594C235.644 355.873 237.53 360.498 241.304 364.168C245.076 367.839 249.732 369.676 255.268 369.676C260.462 369.676 264.913 367.804 268.627 364.058C269.051 363.628 269.449 363.189 269.824 362.743L274.484 369.626L285.849 362.001L271.628 340.935V340.937ZM254.776 357.339C251.072 357.339 248.071 354.331 248.071 350.618C248.071 346.905 251.072 343.898 254.776 343.898C258.48 343.898 261.479 346.907 261.479 350.618C261.479 354.328 258.478 357.339 254.776 357.339Z" fill="#383738"/>
<path d="M101.485 423.269V413.738H103.849C104.674 413.738 105.311 413.948 105.763 414.366C106.215 414.784 106.442 415.397 106.442 416.204V420.805C106.442 421.613 106.215 422.224 105.763 422.637C105.311 423.05 104.671 423.262 103.849 423.271H101.485V423.269ZM102.694 422.343H103.849C104.266 422.343 104.603 422.224 104.861 421.982C105.119 421.742 105.248 421.42 105.248 421.021V415.984C105.248 415.584 105.119 415.265 104.861 415.023C104.603 414.784 104.266 414.661 103.849 414.661H102.694V422.341V422.343Z" fill="#383738"/>
<path d="M112.813 420.913C112.813 421.684 112.59 422.285 112.147 422.717C111.705 423.149 111.058 423.363 110.212 423.363C109.366 423.363 108.72 423.147 108.277 422.717C107.834 422.287 107.612 421.684 107.612 420.913V416.094C107.612 415.324 107.834 414.723 108.277 414.29C108.72 413.861 109.366 413.645 110.212 413.645C111.058 413.645 111.705 413.861 112.147 414.29C112.59 414.723 112.813 415.324 112.813 416.094V420.913ZM108.806 421.143C108.806 421.561 108.94 421.885 109.207 422.116C109.474 422.348 109.807 422.463 110.205 422.463C110.603 422.463 110.938 422.348 111.21 422.116C111.482 421.883 111.618 421.559 111.618 421.143V415.862C111.618 415.444 111.482 415.119 111.21 414.889C110.938 414.659 110.603 414.542 110.205 414.542C109.807 414.542 109.474 414.657 109.207 414.889C108.94 415.122 108.806 415.446 108.806 415.862V421.143Z" fill="#383738"/>
<path d="M119.698 423.269H117.988L115.476 414.61V423.269H114.282V413.738H116.278L118.492 421.975V413.738H119.701V423.269H119.698Z" fill="#383738"/>
<path d="M126.162 423.269H123.759C122.934 423.269 122.297 423.06 121.844 422.642C121.392 422.224 121.165 421.611 121.165 420.803V416.188C121.165 415.389 121.409 414.781 121.898 414.363C122.386 413.945 123.053 413.736 123.894 413.736H125.891V414.647H123.759C123.342 414.647 123.004 414.767 122.746 415.009C122.489 415.251 122.36 415.57 122.36 415.97V421.047C122.36 421.456 122.482 421.777 122.728 422.015C122.971 422.249 123.297 422.369 123.705 422.369H124.968V418.626H123.745V417.726H126.162V423.266V423.269Z" fill="#383738"/>
<path d="M127.172 418.588V417.689H130.323V418.588H127.172Z" fill="#383738"/>
<path d="M132.547 413.738H134.353L136.417 423.269H135.304L134.639 420.465H132.167L131.556 423.269H130.401L132.547 413.738ZM134.435 419.537L133.458 414.636H133.362L132.371 419.537H134.435Z" fill="#383738"/>
<path d="M141.578 418.666H138.875V423.266H137.68V413.736H138.875V417.766H141.578V413.736H142.773V423.266H141.578V418.666Z" fill="#383738"/>
<path d="M146.794 423.269V413.738H147.988V423.269H146.794Z" fill="#383738"/>
<path d="M155.282 423.269H153.571L151.058 414.61V423.269H149.863V413.738H151.859L154.073 421.975V413.738H155.282V423.269Z" fill="#383738"/>
<path d="M159.595 421.907C159.827 421.599 159.942 421.24 159.942 420.831C159.942 420.422 159.867 420.075 159.717 419.791C159.567 419.504 159.379 419.279 159.152 419.11C158.925 418.943 158.681 418.757 158.419 418.558C158.156 418.358 157.91 418.165 157.686 417.98C157.458 417.794 157.271 417.541 157.121 417.224C156.971 416.907 156.896 416.543 156.896 416.134C156.896 415.408 157.114 414.826 157.547 414.391C157.983 413.955 158.585 413.738 159.354 413.738H160.455V414.638H159.408C158.972 414.638 158.644 414.779 158.417 415.061C158.192 415.343 158.077 415.645 158.077 415.972C158.077 416.298 158.152 416.58 158.302 416.815C158.452 417.052 158.639 417.247 158.866 417.4C159.094 417.555 159.34 417.736 159.607 417.945C159.874 418.154 160.12 418.365 160.347 418.579C160.574 418.792 160.762 419.081 160.912 419.443C161.062 419.805 161.137 420.218 161.137 420.683C161.137 421.536 160.895 422.179 160.41 422.616C159.925 423.053 159.262 423.269 158.421 423.269H156.994V422.369H158.475C158.991 422.369 159.365 422.214 159.595 421.907Z" fill="#383738"/>
<path d="M163.648 423.269V414.638H161.748V413.738H166.745V414.638H164.843V423.269H163.648Z" fill="#383738"/>
<path d="M168.008 423.269V413.738H169.203V423.269H168.008Z" fill="#383738"/>
<path d="M172.368 423.269V414.638H170.466V413.738H175.463V414.638H173.561V423.269H172.366H172.368Z" fill="#383738"/>
<path d="M176.321 413.738H177.515V421.146C177.515 421.583 177.623 421.911 177.834 422.132C178.047 422.355 178.342 422.466 178.724 422.466C179.106 422.466 179.404 422.355 179.622 422.132C179.84 421.909 179.947 421.58 179.947 421.146V413.738H181.142V420.913C181.142 422.545 180.339 423.363 178.731 423.363C177.124 423.363 176.321 422.545 176.321 420.913V413.738Z" fill="#383738"/>
<path d="M183.897 423.269V414.638H181.995V413.738H186.992V414.638H185.09V423.269H183.895H183.897Z" fill="#383738"/>
<path d="M188.257 423.269V413.738H192.4V414.664H189.452V417.715H191.842V418.64H189.452V422.343H192.536V423.269H188.257Z" fill="#383738"/>
<path d="M200.902 420.913C200.902 421.684 200.679 422.285 200.236 422.717C199.794 423.149 199.147 423.363 198.301 423.363C197.455 423.363 196.809 423.147 196.366 422.717C195.923 422.287 195.701 421.684 195.701 420.913V416.094C195.701 415.324 195.923 414.723 196.366 414.29C196.809 413.861 197.455 413.645 198.301 413.645C199.147 413.645 199.794 413.861 200.236 414.29C200.679 414.723 200.902 415.324 200.902 416.094V420.913ZM196.896 421.143C196.896 421.561 197.029 421.885 197.296 422.116C197.563 422.348 197.896 422.463 198.294 422.463C198.693 422.463 199.028 422.348 199.299 422.116C199.571 421.883 199.707 421.559 199.707 421.143V415.862C199.707 415.444 199.571 415.119 199.299 414.889C199.028 414.659 198.693 414.542 198.294 414.542C197.896 414.542 197.563 414.657 197.296 414.889C197.029 415.122 196.896 415.446 196.896 415.862V421.143Z" fill="#383738"/>
<path d="M202.479 423.269V413.738H206.485V414.664H203.673V417.931H205.791V418.856H203.673V423.266H202.479V423.269Z" fill="#383738"/>
<path d="M210.845 423.269H209.65V413.738H211.456L213.277 419.375H213.373L215.233 413.738H216.972V423.269H215.777V415.169L213.956 420.737H212.665L210.845 415.155V423.269Z" fill="#383738"/>
<path d="M218.815 423.269V413.738H222.958V414.664H220.01V417.715H222.4V418.64H220.01V422.343H223.093V423.269H218.815Z" fill="#383738"/>
<path d="M224.616 423.269V413.738H226.98C227.805 413.738 228.442 413.948 228.894 414.366C229.347 414.784 229.574 415.397 229.574 416.204V420.805C229.574 421.613 229.347 422.224 228.894 422.637C228.442 423.05 227.803 423.262 226.98 423.271H224.616V423.269ZM225.825 422.343H226.98C227.397 422.343 227.735 422.224 227.992 421.982C228.25 421.742 228.379 421.42 228.379 421.021V415.984C228.379 415.584 228.25 415.265 227.992 415.023C227.735 414.784 227.397 414.661 226.98 414.661H225.825V422.341V422.343Z" fill="#383738"/>
<path d="M231.148 423.269V413.738H232.343V423.269H231.148Z" fill="#383738"/>
<path d="M235.752 413.738H237.558L239.622 423.269H238.509L237.844 420.465H235.372L234.761 423.269H233.606L235.752 413.738ZM237.64 419.537L236.663 414.636H236.567L235.576 419.537H237.64Z" fill="#383738"/>
<path d="M244.35 413.738H246.157L248.221 423.269H247.108L246.442 420.465H243.971L243.359 423.269H242.204L244.35 413.738ZM246.236 419.537L245.257 414.636H245.161L244.17 419.537H246.234H246.236Z" fill="#383738"/>
<path d="M254.795 423.269H253.084L250.573 414.61V423.269H249.378V413.738H251.374L253.588 421.975V413.738H254.797V423.269H254.795Z" fill="#383738"/>
<path d="M256.655 423.269V413.738H259.019C259.844 413.738 260.481 413.948 260.933 414.366C261.385 414.784 261.612 415.397 261.612 416.204V420.805C261.612 421.613 261.385 422.224 260.933 422.637C260.481 423.05 259.841 423.262 259.019 423.271H256.655V423.269ZM257.864 422.343H259.019C259.436 422.343 259.773 422.224 260.031 421.982C260.289 421.742 260.418 421.42 260.418 421.021V415.984C260.418 415.584 260.289 415.265 260.031 415.023C259.773 414.784 259.436 414.661 259.019 414.661H257.864V422.341V422.343Z" fill="#383738"/>
<path d="M266.649 413.738H268.456L270.52 423.269H269.407L268.742 420.465H266.27L265.658 423.269H264.503L266.649 413.738ZM268.538 419.537L267.561 414.636H267.465L266.474 419.537H268.538Z" fill="#383738"/>
<path d="M272.952 419.088V423.269H271.783V413.738H274.294C275.925 413.738 276.738 414.582 276.738 416.27C276.738 416.907 276.616 417.459 276.372 417.931C276.129 418.403 275.78 418.729 275.327 418.91L277.216 423.266H276.047L274.201 419.086H272.952V419.088ZM272.98 414.636V418.189H273.945C274.461 418.189 274.861 418.01 275.147 417.651C275.433 417.292 275.576 416.831 275.576 416.27C275.576 415.18 275.032 414.636 273.945 414.636H272.98Z" fill="#383738"/>
<path d="M279.662 423.269V414.638H277.759V413.738H282.757V414.638H280.854V423.269H279.659H279.662Z" fill="#383738"/>
<path d="M286.458 421.907C286.69 421.599 286.805 421.24 286.805 420.831C286.805 420.422 286.73 420.075 286.58 419.791C286.43 419.506 286.243 419.279 286.016 419.11C285.788 418.943 285.545 418.757 285.282 418.558C285.02 418.358 284.776 418.165 284.549 417.98C284.322 417.794 284.134 417.541 283.984 417.224C283.834 416.907 283.759 416.543 283.759 416.134C283.759 415.408 283.977 414.826 284.411 414.391C284.846 413.955 285.446 413.738 286.217 413.738H287.318V414.638H286.273C285.838 414.638 285.507 414.779 285.282 415.061C285.055 415.343 284.943 415.645 284.943 415.972C284.943 416.298 285.018 416.58 285.167 416.815C285.317 417.052 285.505 417.247 285.732 417.4C285.957 417.555 286.205 417.736 286.472 417.945C286.74 418.154 286.986 418.365 287.213 418.579C287.44 418.792 287.627 419.081 287.777 419.443C287.927 419.805 288.002 420.218 288.002 420.683C288.002 421.536 287.761 422.179 287.276 422.616C286.791 423.053 286.128 423.269 285.287 423.269H283.86V422.369H285.341C285.856 422.369 286.231 422.214 286.461 421.907H286.458Z" fill="#383738"/>
<path d="M112.733 394.243C112.733 394.243 112.726 394.206 112.726 394.159V392.146H118.433V389.537H106.916C106.838 389.537 106.794 389.53 106.77 389.525C106.766 389.507 106.761 389.469 106.761 389.406V386.846C106.761 386.787 106.763 386.747 106.768 386.719C106.787 386.717 106.81 386.714 106.848 386.714H118.344V384.081H105.95C105.32 384.081 104.838 384.274 104.519 384.65C104.2 385.004 104.039 385.498 104.039 386.118V390.089C104.039 390.744 104.219 391.256 104.578 391.616C104.948 391.968 105.472 392.146 106.138 392.146H110.004V394.159C110.004 394.18 110.004 394.197 110.001 394.206L109.982 394.218L109.971 394.241C109.971 394.241 109.954 394.241 109.943 394.241H101.574V396.78H108.678C108.293 396.994 107.93 397.257 107.586 397.571C106.51 398.584 105.964 399.826 105.964 401.266C105.964 402.628 106.52 403.816 107.612 404.798C108.682 405.772 109.957 406.268 111.4 406.268C112.843 406.268 114.078 405.772 115.165 404.798C116.273 403.8 116.835 402.611 116.835 401.266C116.835 399.826 116.266 398.581 115.141 397.569C114.799 397.257 114.434 396.994 114.05 396.78H121.158V394.241H112.738C112.738 394.241 112.733 394.241 112.731 394.241L112.733 394.243ZM113.316 402.94C112.782 403.433 112.122 403.682 111.353 403.682C110.585 403.682 109.924 403.433 109.387 402.938C108.844 402.452 108.567 401.857 108.567 401.172C108.567 400.486 108.827 399.866 109.343 399.38C109.877 398.886 110.547 398.638 111.33 398.638C112.112 398.638 112.754 398.889 113.319 399.38C113.865 399.885 114.141 400.486 114.141 401.172C114.141 401.857 113.865 402.452 113.319 402.94H113.316Z" fill="#383738"/>
<path d="M127.692 385.347C126.057 385.347 124.63 385.93 123.449 387.081C122.252 388.264 121.645 389.704 121.645 391.362C121.645 393.02 122.261 394.406 123.475 395.57C124.67 396.735 126.099 397.327 127.718 397.327C129.337 397.327 130.731 396.735 131.909 395.573C133.142 394.406 133.765 392.989 133.765 391.362C133.765 389.734 133.149 388.262 131.933 387.078C130.738 385.93 129.309 385.347 127.692 385.347ZM130.049 393.621C129.379 394.276 128.587 394.61 127.692 394.61C126.797 394.61 126.005 394.276 125.335 393.621C124.684 392.982 124.354 392.214 124.354 391.336C124.354 390.458 124.677 389.638 125.312 388.999C125.949 388.36 126.741 388.036 127.666 388.036C128.592 388.036 129.346 388.36 130.002 389.004C130.684 389.643 131.028 390.425 131.028 391.334C131.028 392.243 130.698 392.966 130.047 393.619L130.049 393.621Z" fill="#383738"/>
<path d="M138.399 389.856C138.394 389.826 138.387 389.767 138.387 389.666V384.03H135.597V405.84H138.387V392.635C138.387 392.522 138.392 392.452 138.397 392.412C138.415 392.412 138.439 392.409 138.472 392.409H141.864V389.871H138.518C138.455 389.871 138.418 389.866 138.397 389.859L138.399 389.856Z" fill="#383738"/>
<path d="M158.124 397.571C157.053 396.597 155.778 396.101 154.333 396.101C152.887 396.101 151.639 396.597 150.566 397.574C149.49 398.586 148.944 399.828 148.944 401.268C148.944 402.63 149.5 403.818 150.591 404.8C151.662 405.775 152.937 406.27 154.382 406.27C155.828 406.27 157.06 405.775 158.147 404.8C159.255 403.802 159.818 402.614 159.818 401.268C159.818 399.828 159.248 398.584 158.124 397.571ZM156.299 402.94C155.764 403.433 155.104 403.682 154.333 403.682C153.562 403.682 152.904 403.433 152.367 402.938C151.824 402.452 151.547 401.857 151.547 401.172C151.547 400.486 151.807 399.866 152.323 399.38C152.857 398.886 153.527 398.638 154.309 398.638C155.092 398.638 155.734 398.889 156.299 399.38C156.844 399.885 157.121 400.486 157.121 401.172C157.121 401.857 156.844 402.452 156.299 402.94Z" fill="#383738"/>
<path d="M159.921 388.295C159.916 388.264 159.911 388.205 159.911 388.107V384.027H157.168V395.974H159.911V391.073C159.911 390.967 159.916 390.897 159.921 390.85C159.951 390.85 159.991 390.845 160.045 390.845H163.203V388.306H160.094C160.005 388.306 159.953 388.299 159.925 388.292L159.921 388.295Z" fill="#383738"/>
<path d="M153.97 394.535C154.267 394.166 154.417 393.668 154.417 393.053V384.57H151.744V387.32C151.744 387.402 151.737 387.447 151.73 387.468C151.718 387.47 151.695 387.475 151.66 387.475H146.939C146.859 387.475 146.815 387.468 146.794 387.463C146.789 387.447 146.784 387.416 146.784 387.367V384.57H144.088V393.147C144.088 393.748 144.247 394.241 144.563 394.61C144.903 395.004 145.392 395.204 146.023 395.204H152.576C153.18 395.204 153.651 394.976 153.97 394.532V394.535ZM151.744 392.463C151.744 392.536 151.728 392.592 151.692 392.637C151.692 392.637 151.683 392.642 151.657 392.642H146.96C146.873 392.642 146.833 392.63 146.822 392.625L146.798 392.6C146.794 392.588 146.782 392.55 146.782 392.463V390.192C146.782 390.124 146.784 390.077 146.789 390.042C146.822 390.04 146.871 390.037 146.939 390.037H151.66C151.69 390.037 151.716 390.037 151.732 390.04C151.737 390.073 151.744 390.127 151.744 390.216V392.463Z" fill="#383738"/>
<path d="M174.995 394.194C174.995 394.194 174.995 394.173 174.995 394.159V390.866H172.274V394.159C172.274 394.173 172.274 394.182 172.274 394.187L172.27 394.192C172.27 394.192 172.242 394.197 172.216 394.197H163.845V396.759H171.033C170.634 396.977 170.255 397.247 169.896 397.574C168.821 398.586 168.275 399.828 168.275 401.268C168.275 402.63 168.83 403.818 169.922 404.8C170.993 405.775 172.267 406.27 173.713 406.27C175.159 406.27 176.391 405.775 177.478 404.8C178.586 403.802 179.148 402.614 179.148 401.268C179.148 399.828 178.579 398.584 177.455 397.571C177.098 397.247 176.719 396.977 176.318 396.759H183.431V394.197H175.034C175.02 394.197 175.009 394.197 174.999 394.197L174.995 394.194ZM175.622 402.94C175.088 403.433 174.428 403.682 173.657 403.682C172.886 403.682 172.228 403.433 171.691 402.938C171.148 402.452 170.871 401.857 170.871 401.172C170.871 400.486 171.131 399.866 171.647 399.38C172.181 398.886 172.851 398.638 173.633 398.638C174.416 398.638 175.058 398.889 175.622 399.38C176.168 399.885 176.445 400.486 176.445 401.172C176.445 401.857 176.168 402.452 175.622 402.94Z" fill="#383738"/>
<path d="M258.522 394.838C259.63 393.84 260.193 392.651 260.193 391.306C260.193 390.211 259.862 389.229 259.211 388.377H261.322V385.815H256.079C256.065 385.815 256.05 385.815 256.043 385.815C256.043 385.805 256.043 385.794 256.043 385.779V383.436H253.323V385.779C253.323 385.791 253.323 385.803 253.323 385.808L253.319 385.812C253.319 385.812 253.291 385.817 253.262 385.817H248.045V388.379H250.264C249.638 389.232 249.322 390.213 249.322 391.308C249.322 392.67 249.875 393.858 250.969 394.84C252.039 395.815 253.314 396.31 254.76 396.31C256.205 396.31 257.437 395.815 258.525 394.84L258.522 394.838ZM252.745 392.978C252.201 392.491 251.925 391.897 251.925 391.212C251.925 390.526 252.187 389.906 252.7 389.42C253.234 388.926 253.904 388.678 254.687 388.678C255.469 388.678 256.111 388.929 256.676 389.42C257.222 389.925 257.498 390.526 257.498 391.212C257.498 391.897 257.222 392.491 256.676 392.98C256.142 393.473 255.481 393.722 254.71 393.722C253.94 393.722 253.281 393.473 252.745 392.978Z" fill="#383738"/>
<path d="M204.255 384.027H201.605V405.838H204.255V384.027Z" fill="#383738"/>
<path d="M206.349 395.458H214.586L214.631 395.437C214.659 395.437 214.69 395.444 214.706 395.453C214.708 395.465 214.713 395.486 214.713 395.521V396.754H208.629V398.999H220.652C220.715 398.999 220.76 399.011 220.783 399.034L220.795 399.044C220.823 399.067 220.83 399.131 220.83 399.178V399.934C220.83 400.087 220.802 400.129 220.802 400.129L220.774 400.166C220.774 400.166 220.753 400.181 220.678 400.181H209.481C208.94 400.181 208.397 400.46 208.397 401.317V403.863C208.397 404.415 208.549 404.882 208.846 405.253C209.203 405.681 209.695 405.899 210.308 405.899H223.951V403.654H211.105C211.077 403.654 211.058 403.652 211.046 403.649L211.035 403.635C211.03 403.623 211.021 403.584 211.021 403.499V402.583C211.021 402.475 211.025 402.405 211.03 402.362C211.046 402.362 211.072 402.358 211.105 402.358H221.802C222.358 402.358 223.55 402.085 223.55 400.418V397.872C223.55 397.346 223.342 396.752 222.339 396.752H217.41V395.519C217.41 395.479 217.414 395.455 217.417 395.441C217.428 395.439 217.449 395.434 217.482 395.434L217.541 395.453H225.935V393.234H206.349V395.455V395.458Z" fill="#383738"/>
<path d="M243.193 390.174H241.393C241.393 390.174 241.384 390.174 241.379 390.174V384.192H238.776V397.341C237.935 397.426 236.696 397.489 236.017 397.534C235.199 397.595 234.405 397.628 233.662 397.628H231.148C231.087 397.628 231.047 397.623 231.022 397.618C231.019 397.592 231.017 397.553 231.017 397.496V388.17H236.537V385.561H230.185C229.63 385.561 229.178 385.716 228.836 386.021C228.494 386.345 228.32 386.796 228.32 387.36V398.06C228.32 398.663 228.505 399.173 228.871 399.575C229.257 399.997 229.787 400.211 230.443 400.211H233.662C234.372 400.211 235.168 400.171 236.026 400.094C236.813 400.037 238.05 399.962 238.776 399.866V405.836H241.379V392.771C241.379 392.736 241.379 392.708 241.384 392.686H243.193C243.193 392.686 243.193 392.696 243.193 392.701V405.836H245.819V384.025H243.193V390.171V390.174Z" fill="#383738"/>
<path d="M263.562 397.55H251.053V400.159H262.435C262.629 400.159 262.688 400.197 262.695 400.202C262.695 400.202 262.732 400.249 262.732 400.432V405.796H265.476V399.607C265.476 398.992 265.323 398.499 265.024 398.144C264.684 397.75 264.192 397.55 263.564 397.55H263.562Z" fill="#383738"/>
<path d="M268.763 388.783H265.651C265.546 388.783 265.513 388.764 265.516 388.769L265.501 388.755C265.501 388.755 265.473 388.72 265.473 388.581V384.027H262.73V396.341H265.473V391.547C265.473 391.442 265.478 391.371 265.483 391.327C265.511 391.324 265.553 391.322 265.607 391.322H268.765V388.783H268.763Z" fill="#383738"/>
<path d="M282.375 387.867C282.375 387.867 282.403 387.919 282.403 388.116V397.508H285.17V387.198C285.17 386.719 285.001 386.289 284.668 385.923C284.329 385.528 283.9 385.329 283.396 385.329H270.471V387.867H282.316C282.356 387.867 282.375 387.874 282.372 387.867H282.375Z" fill="#383738"/>
<path d="M280.419 400.906C280.381 400.906 280.355 400.906 280.339 400.902C280.337 400.883 280.334 400.857 280.334 400.822V392.635H277.638V400.822C277.638 400.871 277.631 400.894 277.633 400.899C277.626 400.899 277.609 400.906 277.577 400.906H275.367C275.342 400.906 275.325 400.906 275.316 400.902C275.313 400.892 275.306 400.869 275.306 400.822V392.635H272.586V400.822C272.586 400.871 272.579 400.897 272.582 400.899C272.575 400.899 272.558 400.906 272.528 400.906H268.615V403.468H287.389V400.906H280.419Z" fill="#383738"/>
<path d="M197.444 387.428C197.444 387.442 197.444 387.452 197.444 387.456L197.437 387.463C197.437 387.463 197.42 387.463 197.406 387.463H194.265C194.166 387.353 194.065 387.247 193.958 387.142C192.807 386.038 191.437 385.479 189.881 385.479C188.325 385.479 186.938 386.038 185.805 387.144C184.654 388.281 184.071 389.664 184.071 391.259C184.071 392.853 184.664 394.182 185.828 395.303C186.978 396.423 188.349 396.991 189.905 396.991C191.46 396.991 192.8 396.423 193.932 395.305C193.979 395.26 194.023 395.216 194.068 395.171H197.406C197.406 395.171 197.427 395.171 197.434 395.171C197.439 395.197 197.444 395.237 197.444 395.303V405.838H200.047V384.192H197.444V387.428ZM192.147 393.431C191.502 394.06 190.741 394.38 189.881 394.38C189.021 394.38 188.26 394.06 187.616 393.431C186.99 392.818 186.671 392.078 186.671 391.235C186.671 390.392 186.981 389.603 187.592 388.99C188.204 388.377 188.965 388.065 189.855 388.065C190.746 388.065 191.47 388.377 192.1 388.995C192.756 389.608 193.086 390.361 193.086 391.235C193.086 392.109 192.767 392.804 192.142 393.431H192.147ZM197.444 392.665V392.677C197.444 392.677 197.42 392.677 197.406 392.677H195.537C195.656 392.224 195.717 391.749 195.717 391.256C195.717 390.805 195.668 390.371 195.574 389.955H197.406C197.406 389.955 197.42 389.955 197.425 389.955C197.434 389.976 197.444 390.019 197.444 390.084V392.661V392.665Z" fill="#383738"/>
<path d="M173.633 387.56L179.355 393.166L181.362 391.39L173.6 383.816L166.026 391.313L168.006 393.198L173.633 387.56Z" fill="#383738"/>
<path d="M216.079 387.076L221.8 392.236L223.602 390.411L216.046 383.628L208.697 390.411L210.451 392.266L216.079 387.076Z" fill="#383738"/>
</g>
</g>
<defs>
<linearGradient id="paint0_linear_1_2658" x1="7.3694e-06" y1="692.67" x2="449.323" y2="599.561" gradientUnits="userSpaceOnUse">
<stop stop-color="#FF57B8"/>
<stop offset="1" stop-color="#7579FD"/>
</linearGradient>
<clipPath id="clip0_1_2658">
<rect width="390" height="845" fill="white"/>
</clipPath>
<clipPath id="clip1_1_2658">
<rect width="187" height="113.363" fill="white" transform="translate(101 310)"/>
</clipPath>
</defs>
</svg>
