<svg width="92" height="111" viewBox="0 0 92 111" fill="none" xmlns="http://www.w3.org/2000/svg">
<g clip-path="url(#clip0_15_3038)">
<path d="M84 1.00647H8C3.85786 1.00647 0.5 4.36433 0.5 8.50647V102.506C0.5 106.649 3.85786 110.006 8 110.006H84C88.1421 110.006 91.5 106.649 91.5 102.506V8.50647C91.5 4.36433 88.1421 1.00647 84 1.00647Z" fill="white"/>
<path d="M84 1.00647H8C3.85786 1.00647 0.5 4.36433 0.5 8.50647V102.506C0.5 106.649 3.85786 110.006 8 110.006H84C88.1421 110.006 91.5 106.649 91.5 102.506V8.50647C91.5 4.36433 88.1421 1.00647 84 1.00647Z" stroke="#E9E9E9"/>
<path d="M39.5823 15.5464C43.0892 15.5464 46.5961 15.5464 50.103 15.5464C50.3286 15.6605 50.55 15.8637 50.7776 15.872C54.4206 16.0109 57.9824 16.5937 61.5055 17.5849C64.4354 18.4102 66.4286 20.6436 66.6826 23.7604C66.7882 25.0503 66.9183 26.3464 67.1844 27.6072C67.2759 28.0385 67.7493 28.4885 68.1617 28.7208C68.8566 29.1106 69.4885 29.5005 69.5474 30.3756C69.6714 32.2482 69.8441 34.1249 69.8095 35.9954C69.7912 36.8912 69.586 37.9882 68.6412 38.4133C67.8509 38.7679 67.9159 39.3196 67.9159 39.952C67.9139 46.8368 67.9118 53.7215 67.9017 60.6063C67.9017 61.8547 67.5766 62.1968 66.3676 62.2673C66.0304 62.286 65.6565 62.1927 65.366 62.3171C65.0734 62.4415 64.6894 62.7443 64.6548 63.0118C64.5573 63.7563 64.6325 64.5215 64.6142 65.2784C64.5797 66.8254 63.6003 68.0675 62.1842 68.3786C60.6278 68.7207 58.9861 68.0509 58.5147 66.5869C58.1815 65.5563 58.2323 64.3763 58.2282 63.2606C58.2242 62.4871 57.9844 62.259 57.2326 62.2756C54.9753 62.3212 52.7159 62.2922 50.4566 62.2922C45.6351 62.2922 40.8136 62.3047 35.9921 62.2798C35.1063 62.2756 34.6796 62.5473 34.7487 63.5219C34.8076 64.3431 34.8543 65.1933 34.7101 65.9917C34.6064 66.5682 34.2976 67.2277 33.8709 67.5989C32.6965 68.615 31.3434 68.6959 29.9536 67.9929C28.6878 67.3542 28.5821 66.2178 28.6004 64.9611C28.637 62.4394 28.6106 62.4166 26.1521 62.2964C25.3191 62.2549 24.8213 61.7821 24.6384 61.0791C24.4068 60.1978 24.2706 59.2646 24.2605 58.3521C24.1975 52.5706 24.1772 46.787 24.1508 41.0055C24.1447 39.8753 24.4047 38.6829 23.0475 38.0463C22.7976 37.9302 22.7346 37.42 22.5619 37.1069C22.4623 36.9286 22.312 36.7792 22.186 36.6175C22.186 34.6889 22.186 32.7624 22.186 30.8339C22.2937 30.7779 22.4887 30.7323 22.4969 30.6618C22.6228 29.6125 23.1491 28.9634 24.167 28.671C24.3783 28.6109 24.5937 28.2314 24.6425 27.9659C24.9289 26.3982 25.1423 24.816 25.4247 23.2461C25.7396 21.4959 26.0302 19.6296 27.617 18.5989C29.6326 17.2925 31.959 16.7367 34.3078 16.3967C35.8641 16.1706 37.4347 16.0628 38.9951 15.872C39.2024 15.8471 39.3893 15.6584 39.5864 15.5464H39.5823ZM29.915 43.1497H61.7737V26.2924H29.915V43.1497ZM34.068 20.5482C34.0111 20.7494 33.9786 20.8116 33.9786 20.878C33.9705 21.5312 33.9624 22.1844 33.9644 22.8397C33.9664 24.1233 34.0111 24.169 35.2952 24.169C42.3395 24.169 49.3838 24.169 56.426 24.169C56.6292 24.169 56.8791 24.2415 57.0213 24.1461C57.2936 23.9657 57.6898 23.7065 57.7122 23.4494C57.7934 22.5079 57.7447 21.5519 57.7447 20.5482H34.068ZM37.6074 54.775C37.6013 52.7801 36.2867 51.5296 34.3443 51.4384C32.5177 51.3533 30.9776 53.2466 31.0569 54.8082C31.1524 56.7388 32.4507 58.1178 34.3748 58.122C36.3213 58.1261 37.6135 56.7865 37.6095 54.775H37.6074ZM57.5577 58.1261C59.7643 58.2049 60.7477 56.4423 60.9204 54.8165C61.1073 53.0476 59.3701 51.5047 57.509 51.4425C55.4223 51.3741 54.1788 53.3006 54.2073 54.8185C54.2357 56.3697 55.4406 58.2837 57.5577 58.1261Z" fill="#383738"/>
<path d="M25.3585 86.0074H26.4245V97.7854H25.3585V86.0074ZM22.2515 90.3754H25.6705V91.2594H22.2515V90.3754ZM17.2205 86.9434H18.2865V89.9984H21.5495V86.9434H22.6155V94.8344H17.2205V86.9434ZM18.2865 90.8564V93.9374H21.5495V90.8564H18.2865ZM33.4175 86.8264H34.3535V87.7234C34.3535 90.2844 31.9745 92.2734 29.6215 92.8064L29.1405 91.9094C31.2075 91.5194 33.4175 89.7254 33.4175 87.7234V86.8264ZM33.6125 86.8264H34.5485V87.7234C34.5485 89.7384 36.7715 91.5194 38.8255 91.9094L38.3445 92.8064C36.0045 92.2734 33.6125 90.2974 33.6125 87.7234V86.8264ZM28.7115 95.3024H39.3585V96.1864H28.7115V95.3024ZM43.7645 87.0344H44.6485V89.1404C44.6485 91.8444 43.1925 94.3534 41.2685 95.3284L40.6055 94.4444C42.3475 93.6124 43.7645 91.3634 43.7645 89.1404V87.0344ZM43.9465 87.0344H44.8305V89.1404C44.8305 91.2854 46.2345 93.4434 47.9765 94.2494L47.3265 95.1074C45.4155 94.1714 43.9465 91.7534 43.9465 89.1404V87.0344ZM49.1985 86.0074H50.2775V97.7854H49.1985V86.0074ZM60.6635 86.0204H61.7425V94.6134H60.6635V86.0204ZM61.4045 89.5824H63.4845V90.4794H61.4045V89.5824ZM57.4525 86.9304H58.5965C58.5965 89.9724 56.4645 92.1954 53.0975 93.2744L52.6295 92.3904C55.5935 91.4804 57.4525 89.6604 57.4525 87.3984V86.9304ZM53.1105 86.9304H57.9985V87.8144H53.1105V86.9304ZM54.4105 96.6284H62.2625V97.5124H54.4105V96.6284ZM54.4105 93.7424H55.4895V96.9794H54.4105V93.7424ZM67.5265 92.3904H68.6055V95.7444H67.5265V92.3904ZM71.1535 92.3904H72.2195V95.7444H71.1535V92.3904ZM64.5885 95.4584H75.2355V96.3554H64.5885V95.4584ZM65.5115 87.0994H74.2345V87.9834H65.5115V87.0994ZM65.5375 91.8054H74.2215V92.6764H65.5375V91.8054ZM67.3445 87.8144H68.4235V91.9874H67.3445V87.8144ZM71.3485 87.8144H72.4145V91.9874H71.3485V87.8144Z" fill="black"/>
</g>
<defs>
<clipPath id="clip0_15_3038">
<rect width="92" height="111" fill="white"/>
</clipPath>
</defs>
</svg>
