<svg width="92" height="111" viewBox="0 0 92 111" fill="none" xmlns="http://www.w3.org/2000/svg">
<g clip-path="url(#clip0_15_3043)">
<path d="M84 1.33972H8C3.85786 1.33972 0.5 4.69759 0.5 8.83972V102.84C0.5 106.982 3.85786 110.34 8 110.34H84C88.1421 110.34 91.5 106.982 91.5 102.84V8.83972C91.5 4.69759 88.1421 1.33972 84 1.33972Z" fill="white"/>
<path d="M84 1.33972H8C3.85786 1.33972 0.5 4.69759 0.5 8.83972V102.84C0.5 106.982 3.85786 110.34 8 110.34H84C88.1421 110.34 91.5 106.982 91.5 102.84V8.83972C91.5 4.69759 88.1421 1.33972 84 1.33972Z" stroke="#E9E9E9"/>
<path d="M26.2105 68.7997C24.9336 68.0382 24.9128 66.7834 24.9689 65.4856C25.0937 62.5727 24.9981 59.632 25.3703 56.7555C25.8819 52.8152 27.4478 49.2352 29.9912 46.2043C31.8254 44.0164 33.7345 41.8886 35.7102 39.8379C36.1989 39.3296 37.0578 39.1022 37.7856 38.9606C38.5426 38.8148 39.3474 38.9285 40.2708 38.9285C40.2708 38.2056 40.2375 37.6093 40.277 37.0173C40.3685 35.6831 41.0506 35.2519 41.8575 35.1275C42.7247 34.9945 43.4297 35.8997 43.4734 37.0602C43.4942 37.6243 43.4775 38.1884 43.4775 38.8405H48.5165C48.5165 38.2142 48.4894 37.5836 48.5227 36.9551C48.5768 35.8869 49.3109 35.0053 50.1386 35.1232C50.8851 35.2283 51.6068 35.6531 51.7066 36.91C51.7565 37.5364 51.7149 38.1713 51.7149 38.9285C52.6424 38.9285 53.4452 38.8234 54.2063 38.9585C54.903 39.0829 55.7494 39.2845 56.1965 39.7736C58.6068 42.4141 61.0857 45.0224 63.209 47.901C65.2574 50.6787 66.4261 53.9713 66.6944 57.4955C66.8961 60.151 66.9107 62.8216 67.023 65.4856C67.0771 66.7834 67.0583 68.0403 65.7815 68.7997H26.2105ZM54.2687 54.1772C54.2916 49.8915 50.8124 45.6873 46.0209 45.6745C41.2004 45.6616 37.6775 49.8572 37.7316 54.1215C37.796 59.2523 41.5581 62.7207 46.0188 62.7036C50.4755 62.6864 54.1231 59.2437 54.2687 54.1772Z" fill="#383738"/>
<path d="M27.3501 37.6373C26.0732 37.6373 24.7963 37.5901 23.5236 37.6501C21.9597 37.7252 20.2004 35.8848 19.8489 34.4048C18.6802 29.482 20.9677 26.0371 24.3554 23.1028C27.2191 20.621 30.5402 19.008 34.1213 17.8883C37.0661 16.9681 40.0254 16.2581 43.1136 16.1594C44.0349 16.1294 44.9624 15.8227 45.8712 15.8892C49.3712 16.1401 52.8566 16.4211 56.2776 17.4164C59.7048 18.4138 62.9552 19.7373 65.9 21.7943C68.8551 23.8578 71.4255 26.3246 72.195 30.0976C72.6567 32.3649 72.6754 34.6858 70.9202 36.5734C69.949 37.618 68.6555 37.8496 67.3931 37.9333C65.5028 38.062 63.5978 38.0126 61.7033 37.9569C58.143 37.8496 56.0842 34.7994 57.0907 31.8672C57.2737 31.3374 57.2176 30.9835 56.523 30.6832C54.1065 29.6386 51.6588 28.7806 49.0322 28.5704C47.5307 28.4503 46.0105 28.1521 44.5298 28.2872C41.3875 28.5747 38.3159 29.2418 35.4211 30.6618C34.7244 31.0028 34.7889 31.3632 34.9074 31.8865C35.471 34.3619 34.7036 36.1722 32.5533 37.3498C32.2642 37.5064 31.9149 37.6137 31.5904 37.6201C30.1763 37.6501 28.7621 37.633 27.348 37.633L27.3501 37.6373Z" fill="#383738"/>
<path d="M45.9544 59.4069C43.542 59.6407 40.8302 56.8222 40.9071 54.1559C40.9882 51.3138 43.1697 48.9329 45.9814 48.9179C48.7494 48.9028 51.0349 51.2773 51.0806 54.2353C51.1201 56.805 48.4416 59.6793 45.9564 59.4069H45.9544Z" fill="#EC268F"/>
<path d="M17.8445 87.5238H25.4105V88.4208H17.8445V87.5238ZM16.7525 95.5708H27.3735V96.4678H16.7525V95.5708ZM19.3525 91.6838H20.4185V95.8958H19.3525V91.6838ZM25.0595 87.5238H26.1255V88.8238C26.1255 90.3188 26.1255 91.8528 25.7225 94.0498L24.6435 93.9198C25.0595 91.8398 25.0595 90.2798 25.0595 88.8238V87.5238ZM22.2515 91.6838H23.3175V95.8958H22.2515V91.6838ZM37.6295 86.3538H38.6695V98.1058H37.6295V86.3538ZM35.6535 91.1378H37.9155V92.0218H35.6535V91.1378ZM34.9645 86.6138H35.9785V97.5078H34.9645V86.6138ZM29.2705 87.7708H30.3495V94.5568H29.2705V87.7708ZM29.2705 94.1278H30.0245C31.2335 94.1278 32.5855 94.0498 34.1195 93.7508L34.2365 94.6868C32.6375 94.9988 31.2855 95.0638 30.0245 95.0638H29.2705V94.1278ZM46.1045 88.1868H49.6405V89.0708H46.1045V88.1868ZM46.1045 91.0078H49.6405V91.8918H46.1045V91.0078ZM49.2505 86.3668H50.3295V95.0508H49.2505V86.3668ZM42.8285 96.9618H50.6545V97.8458H42.8285V96.9618ZM42.8285 94.1538H43.9075V97.3518H42.8285V94.1538ZM43.8685 87.1078C45.5975 87.1078 46.8975 88.3168 46.8975 90.0458C46.8975 91.7748 45.5975 92.9838 43.8685 92.9838C42.1395 92.9838 40.8395 91.7748 40.8395 90.0458C40.8395 88.3168 42.1395 87.1078 43.8685 87.1078ZM43.8685 88.0568C42.7245 88.0568 41.8795 88.8888 41.8795 90.0458C41.8795 91.2158 42.7245 92.0478 43.8685 92.0478C45.0125 92.0478 45.8705 91.2158 45.8705 90.0458C45.8705 88.8888 45.0125 88.0568 43.8685 88.0568ZM53.1365 91.9828H54.0595C56.1915 91.9828 57.7125 91.9178 59.5455 91.6058L59.6365 92.4898C57.7775 92.8148 56.2305 92.8798 54.0595 92.8798H53.1365V91.9828ZM53.1105 87.0428H58.4015V90.3058H54.1895V92.4248H53.1365V89.4738H57.3355V87.9268H53.1105V87.0428ZM60.6635 86.3668H61.7425V93.5038H60.6635V86.3668ZM61.4175 89.3568H63.4845V90.2668H61.4175V89.3568ZM54.1115 94.1148H61.7425V98.1058H60.6635V94.9988H54.1115V94.1148ZM65.0695 87.2378H70.4645V92.2948H65.0695V87.2378ZM69.4115 88.1088H66.1225V91.4368H69.4115V88.1088ZM72.6225 86.3538H73.7015V93.2958H72.6225V86.3538ZM73.4025 89.2658H75.4435V90.1758H73.4025V89.2658ZM69.9575 93.6988C72.3495 93.6988 73.8185 94.5178 73.8185 95.8958C73.8185 97.2868 72.3495 98.0928 69.9575 98.0928C67.5655 98.0928 66.0965 97.2868 66.0965 95.8958C66.0965 94.5178 67.5655 93.6988 69.9575 93.6988ZM69.9575 94.5698C68.2155 94.5698 67.1495 95.0508 67.1495 95.8958C67.1495 96.7408 68.2155 97.2348 69.9575 97.2348C71.6995 97.2348 72.7655 96.7408 72.7655 95.8958C72.7655 95.0508 71.6995 94.5698 69.9575 94.5698Z" fill="black"/>
</g>
<defs>
<clipPath id="clip0_15_3043">
<rect width="92" height="111" fill="white"/>
</clipPath>
</defs>
</svg>
