<svg width="92" height="111" viewBox="0 0 92 111" fill="none" xmlns="http://www.w3.org/2000/svg">
<g clip-path="url(#clip0_15_3022)">
<path d="M84 0.673096H8C3.85786 0.673096 0.5 4.03096 0.5 8.1731V102.173C0.5 106.315 3.85786 109.673 8 109.673H84C88.1421 109.673 91.5 106.315 91.5 102.173V8.1731C91.5 4.03096 88.1421 0.673096 84 0.673096Z" fill="white"/>
<path d="M84 0.673096H8C3.85786 0.673096 0.5 4.03096 0.5 8.1731V102.173C0.5 106.315 3.85786 109.673 8 109.673H84C88.1421 109.673 91.5 106.315 91.5 102.173V8.1731C91.5 4.03096 88.1421 0.673096 84 0.673096Z" stroke="#E9E9E9"/>
<path d="M26.3637 68.1331C24.3835 67.3197 23.5214 65.8155 23.5254 63.6685C23.5439 49.0639 23.5644 34.4614 23.5091 19.8568C23.4968 17.1626 25.3951 15.1925 28.1002 15.2133C40.0512 15.3048 52.0042 15.3006 63.9551 15.2133C66.5579 15.1945 68.4992 17.094 68.491 19.7902C68.4398 34.4281 68.4685 49.066 68.4664 63.706C68.4664 66.0568 67.6821 67.2572 65.6077 68.131H26.3657L26.3637 68.1331ZM63.1851 39.2505C63.1851 33.3484 63.1647 27.4462 63.2015 21.544C63.2097 20.329 62.6507 19.734 61.4425 19.7361C51.1625 19.7548 40.8826 19.7548 30.6006 19.7361C29.3842 19.734 28.7944 20.3082 28.7965 21.6251C28.8251 33.3608 28.8129 45.0944 28.8149 56.8301C28.8149 58.2531 29.3473 58.7795 30.7685 58.7795C40.9133 58.7816 51.056 58.7816 61.2008 58.7795C62.6896 58.7795 63.181 58.274 63.181 56.749C63.1831 50.9155 63.181 45.082 63.181 39.2505H63.1851ZM48.0867 63.1817C48.0806 61.9605 47.0669 60.8641 45.9529 60.9785C45.013 61.0763 43.8314 61.8086 43.8949 63.1796C43.9563 64.4965 44.7509 65.4036 46 65.4015C47.2656 65.4015 48.0929 64.5215 48.0867 63.1796V63.1817Z" fill="#383738"/>
<path d="M49.648 27.5412C48.3916 26.4219 47.0105 26.3356 45.5703 26.464C44.2209 26.5839 42.8736 26.7101 41.5242 26.8322C41.218 26.8595 40.9097 26.8827 40.5507 26.9121V35.3721C42.2633 35.3721 43.9337 35.4163 45.5999 35.3553C46.5459 35.3195 47.3272 35.49 48.1107 36.077C49.1476 36.8554 50.3365 37.2236 51.6267 36.5483C51.9203 36.3947 52.2476 36.3063 52.615 36.1674C51.9498 38.1578 50.8179 39.012 48.8794 39.0183C46.2439 39.0267 43.6106 38.9973 40.9752 39.0267C38.2236 39.0562 36.908 37.3898 36.8172 35.0082C36.7179 32.3929 36.7074 29.7651 36.8193 27.152C36.9228 24.7829 38.118 23.1797 40.9013 23.1608C43.5367 23.1418 46.17 23.1566 48.8055 23.1566C49.0166 23.1566 49.2278 23.1523 49.4369 23.1713C51.3775 23.348 51.764 24.1202 50.7398 25.7423C50.3597 26.3462 49.9986 26.9626 49.648 27.5433V27.5412Z" fill="#EC268F"/>
<path d="M40.5701 53.893C42.3327 53.893 44.0088 53.9266 45.6806 53.8803C46.5883 53.8551 47.3609 54.0128 48.0934 54.6077C49.5162 55.7598 51.0445 55.5706 52.615 54.5909C52.0535 56.5692 50.8503 57.5258 49.0074 57.5384C46.3055 57.5552 43.6014 57.5279 40.8994 57.5489C38.2396 57.5699 36.914 55.9322 36.819 53.5734C36.7134 50.9602 36.7113 48.3386 36.819 45.7254C36.9182 43.3141 38.1087 41.7226 40.9754 41.689C43.538 41.6574 46.1007 41.6826 48.6613 41.6826C48.8027 41.6826 48.942 41.6826 49.0834 41.6869C51.34 41.7878 51.7791 42.553 50.6519 44.4367C50.3183 44.9938 49.97 45.5404 49.6281 46.0954C48.4882 44.9917 47.0886 44.8656 45.6215 44.9917C44.1713 45.1157 42.7211 45.2419 41.2709 45.368C41.064 45.3869 40.8551 45.4038 40.5701 45.429V53.8993V53.893Z" fill="#EC268F"/>
<path d="M44.677 29.0356C45.1021 28.5781 45.423 27.9513 45.9608 27.7385C46.4314 27.5522 47.2035 27.7235 47.7413 27.9343C48.3051 28.1564 48.7584 28.6007 49.242 28.9678C50.1984 29.6963 50.3198 29.6794 50.9574 28.7683C52.0005 27.2773 53.0393 25.7864 54.1171 24.3162C54.9824 23.1358 55.891 22.8723 56.9298 23.4352C57.8602 23.9397 58.205 24.8546 57.6173 25.6791C55.8347 28.1734 54.0087 30.6451 52.1588 33.1036C51.6275 33.8096 50.3003 33.9583 49.4675 33.3728C48.0688 32.3883 46.7307 31.3341 45.4165 30.2667C45.1107 30.0182 45.0001 29.589 44.6813 29.0356H44.677Z" fill="#EC268F"/>
<path d="M44.677 47.5206C45.099 47.0767 45.4252 46.4541 45.9668 46.2453C46.4388 46.0628 47.2218 46.2246 47.7438 46.4484C48.3658 46.7155 48.903 47.1726 49.3946 47.6166C50.034 48.194 50.4625 48.0229 50.8736 47.4397C51.9415 45.9274 53.0029 44.4112 54.0817 42.9045C54.9757 41.6574 55.9588 41.3658 57.0637 41.9922C57.8771 42.4549 58.1599 43.1791 57.6553 43.9033C55.85 46.4936 54.0165 49.0687 52.146 51.6232C51.6457 52.306 50.3277 52.4829 49.5403 51.9279C48.0831 50.9065 46.7041 49.7986 45.336 48.6869C45.0555 48.4593 44.9706 48.0548 44.6792 47.5187L44.677 47.5206Z" fill="#EC268F"/>
<path d="M28.959 88.9241H31.923V89.8081H28.959V88.9241ZM31.312 85.7001H32.391V94.3061H31.312V85.7001ZM24.89 96.2951H32.716V97.1791H24.89V96.2951ZM24.89 93.5521H25.969V96.7501H24.89V93.5521ZM25.722 87.1561H26.606V88.1051C26.606 90.2371 25.28 92.0831 23.317 92.8111L22.758 91.9531C24.513 91.3291 25.722 89.7691 25.722 88.1051V87.1561ZM25.93 87.1561H26.801V88.0921C26.801 89.6131 27.945 91.0951 29.648 91.6931L29.102 92.5381C27.191 91.8491 25.93 90.0811 25.93 88.0921V87.1561ZM23.096 86.6491H29.375V87.5201H23.096V86.6491ZM37.59 87.3641H38.448V89.2751C38.448 91.7191 36.953 94.2411 35.12 95.1771L34.496 94.3191C36.173 93.5001 37.59 91.2641 37.59 89.2751V87.3641ZM37.785 87.3641H38.643V89.2751C38.643 91.1341 39.969 93.2271 41.672 94.0331L41.061 94.8911C39.202 93.9681 37.785 91.6021 37.785 89.2751V87.3641ZM34.912 86.8831H41.243V87.7931H34.912V86.8831ZM42.634 85.6871H43.726V97.4391H42.634V85.6871ZM43.466 90.4321H45.65V91.3421H43.466V90.4321ZM51.408 91.5371H52.487V93.3181H51.408V91.5371ZM46.65 90.9001H57.258V91.7321H46.65V90.9001ZM51.421 85.6091H52.487V87.0391H51.421V85.6091ZM51.369 87.1431H52.318V87.3251C52.318 89.1711 50.121 90.1591 47.521 90.3801L47.209 89.5481C49.523 89.4051 51.369 88.5861 51.369 87.3251V87.1431ZM51.59 87.1431H52.539V87.3251C52.539 88.5861 54.385 89.4051 56.686 89.5481L56.374 90.3801C53.774 90.1591 51.59 89.1711 51.59 87.3251V87.1431ZM47.729 86.7141H56.179V87.5331H47.729V86.7141ZM47.924 92.7981H55.906V95.3851H49.016V96.8021H47.95V94.6181H54.84V93.6171H47.924V92.7981ZM47.95 96.4901H56.257V97.3091H47.95V96.4901ZM67.189 85.6871H68.268V91.6801H67.189V85.6871ZM63.471 86.2591H64.641C64.641 89.2231 62.6 91.1211 59.168 91.9531L58.791 91.0691C61.833 90.3671 63.471 88.8201 63.471 86.7921V86.2591ZM59.402 86.2591H63.965V87.1431H59.402V86.2591ZM64.225 87.3771H67.371V88.2351H64.225V87.3771ZM64.121 89.6261H67.306V90.4711H64.121V89.6261ZM60.702 92.2261H68.268V95.1121H61.807V96.9841H60.741V94.2801H67.202V93.0971H60.702V92.2261ZM60.741 96.4641H68.658V97.3221H60.741V96.4641Z" fill="black"/>
</g>
<defs>
<clipPath id="clip0_15_3022">
<rect width="92" height="111" fill="white"/>
</clipPath>
</defs>
</svg>
