<svg width="92" height="111" viewBox="0 0 92 111" fill="none" xmlns="http://www.w3.org/2000/svg">
<g clip-path="url(#clip0_15_3031)">
<path d="M84 1.00647H8C3.85786 1.00647 0.5 4.36433 0.5 8.50647V102.506C0.5 106.649 3.85786 110.006 8 110.006H84C88.1421 110.006 91.5 106.649 91.5 102.506V8.50647C91.5 4.36433 88.1421 1.00647 84 1.00647Z" fill="white"/>
<path d="M84 1.00647H8C3.85786 1.00647 0.5 4.36433 0.5 8.50647V102.506C0.5 106.649 3.85786 110.006 8 110.006H84C88.1421 110.006 91.5 106.649 91.5 102.506V8.50647C91.5 4.36433 88.1421 1.00647 84 1.00647Z" stroke="#E9E9E9"/>
<path d="M19.54 38.0887C20.0502 38.072 20.5613 38.0434 21.0714 38.0415C23.5392 38.036 26.007 38.0378 28.4758 38.0378C28.6744 38.0378 28.8731 38.0378 29.1118 38.0378C29.2835 43.5672 31.4323 48.1213 35.8251 51.5244C39.0539 54.0252 42.7734 55.1688 46.8668 54.9607C51.3799 54.7315 55.2085 52.9518 58.3021 49.6846C61.3789 46.4341 62.8637 42.5318 62.9569 38.0656H72.4318C72.4411 38.2338 72.4626 38.4104 72.4598 38.5861C72.3525 44.341 70.5217 49.5108 67.0364 54.0991C64.313 57.6834 60.8697 60.4005 56.738 62.2375C52.376 64.1771 47.8097 64.8529 43.0597 64.324C38.3358 63.798 34.0698 62.1062 30.2907 59.2707C25.3169 55.5395 22.0265 50.6591 20.4624 44.6655C20.1602 43.509 20.0166 42.3118 19.8021 41.133C19.7125 40.6421 19.6277 40.1503 19.5409 39.6585C19.5409 39.1352 19.54 38.6119 19.54 38.0887Z" fill="#383738"/>
<path d="M69.814 24.8515C69.7915 27.7724 67.4053 30.1162 64.4687 30.0993C61.5677 30.0834 59.2058 27.6646 59.2302 24.7353C59.2536 21.8772 61.6661 19.495 64.5155 19.5156C67.4934 19.5371 69.8365 21.8959 69.814 24.8515Z" fill="#383738"/>
<path d="M51.2911 34.4594C51.1148 35.1838 50.9172 35.9043 50.7669 36.6347C50.5331 37.775 50.3401 38.9262 50.1128 40.0685C49.84 41.439 49.5589 42.8085 49.2657 44.1741C49.0161 45.3392 48.2831 45.9843 47.2542 45.9753C46.2587 45.9674 45.5183 45.2598 45.2835 44.1106C44.7333 41.4212 44.1757 38.7337 43.6237 36.0452C43.5309 35.5947 43.4168 35.1451 43.3741 34.6886C43.144 32.2651 44.9171 30.1612 47.2227 30.1007C49.428 30.0421 51.2632 32.0468 51.292 34.4584L51.2911 34.4594Z" fill="#EC268F"/>
<path d="M21.5105 90.5834H23.7335V91.4804H21.5105V90.5834ZM25.6965 86.0204H26.7365V97.7724H25.6965V86.0204ZM23.3695 86.2674H24.3965V97.1874H23.3695V86.2674ZM19.3915 86.9954C20.9125 86.9954 21.9005 88.5684 21.9005 91.0904C21.9005 93.6124 20.9125 95.1854 19.3915 95.1854C17.8705 95.1854 16.8955 93.6124 16.8955 91.0904C16.8955 88.5684 17.8705 86.9954 19.3915 86.9954ZM19.3915 87.9964C18.4685 87.9964 17.8835 89.1924 17.8835 91.0904C17.8835 92.9884 18.4685 94.1844 19.3915 94.1844C20.3275 94.1844 20.9125 92.9884 20.9125 91.0904C20.9125 89.1924 20.3275 87.9964 19.3915 87.9964ZM28.7115 95.3154H39.3585V96.2254H28.7115V95.3154ZM29.9595 86.8654H31.0255V89.0234H37.0185V86.8654H38.0845V92.9884H29.9595V86.8654ZM31.0255 89.8944V92.1044H37.0185V89.8944H31.0255ZM49.2245 86.0074H50.3035V97.7854H49.2245V86.0074ZM41.3465 94.0544H42.3215C44.2845 94.0544 46.0395 93.9764 48.1195 93.6384L48.2365 94.5224C46.1045 94.8734 44.3365 94.9514 42.3215 94.9514H41.3465V94.0544ZM41.3205 87.1124H46.7545V91.3114H42.4255V94.3924H41.3465V90.4274H45.6625V87.9964H41.3205V87.1124ZM53.1235 94.0544H54.0465C56.2175 94.0544 57.7125 94.0024 59.4805 93.6904L59.5975 94.5744C57.7775 94.8864 56.2435 94.9514 54.0465 94.9514H53.1235V94.0544ZM53.1235 87.0864H58.5965V87.9834H54.2025V94.3664H53.1235V87.0864ZM53.9295 90.3754H58.3365V91.2464H53.9295V90.3754ZM60.5725 86.0204H61.6645V97.7724H60.5725V86.0204ZM61.4045 90.7394H63.5885V91.6494H61.4045V90.7394ZM73.1295 86.0334H74.2215V92.7414H73.1295V86.0334ZM66.6295 93.3784H74.2215V97.6164H66.6295V93.3784ZM73.1555 94.2364H67.6825V96.7454H73.1555V94.2364ZM67.9165 86.6444C69.6975 86.6444 70.9715 87.7624 70.9715 89.3874C70.9715 91.0124 69.6975 92.1304 67.9165 92.1304C66.1355 92.1304 64.8485 91.0124 64.8485 89.3874C64.8485 87.7624 66.1355 86.6444 67.9165 86.6444ZM67.9165 87.5414C66.7465 87.5414 65.9015 88.2954 65.9015 89.3874C65.9015 90.4794 66.7465 91.2204 67.9165 91.2204C69.0865 91.2204 69.9315 90.4794 69.9315 89.3874C69.9315 88.2954 69.0865 87.5414 67.9165 87.5414Z" fill="black"/>
</g>
<defs>
<clipPath id="clip0_15_3031">
<rect width="92" height="111" fill="white"/>
</clipPath>
</defs>
</svg>
