<svg width="92" height="111" viewBox="0 0 92 111" fill="none" xmlns="http://www.w3.org/2000/svg">
<g clip-path="url(#clip0_15_3050)">
<path d="M84 1.00647H8C3.85786 1.00647 0.5 4.36433 0.5 8.50647V102.506C0.5 106.649 3.85786 110.006 8 110.006H84C88.1421 110.006 91.5 106.649 91.5 102.506V8.50647C91.5 4.36433 88.1421 1.00647 84 1.00647Z" fill="white"/>
<path d="M84 1.00647H8C3.85786 1.00647 0.5 4.36433 0.5 8.50647V102.506C0.5 106.649 3.85786 110.006 8 110.006H84C88.1421 110.006 91.5 106.649 91.5 102.506V8.50647C91.5 4.36433 88.1421 1.00647 84 1.00647Z" stroke="#E9E9E9"/>
<path d="M72.46 68.4642H19.54V27.9499C19.852 27.927 20.1641 27.8834 20.4761 27.8834C37.4372 27.8793 54.3984 27.8793 71.3595 27.8834C71.6968 27.8834 72.0362 27.9187 72.46 27.9416V68.4663V68.4642ZM60.3564 48.0711C60.5756 39.9529 53.6267 33.8061 46.0158 33.8082C38.4471 33.8082 31.6352 39.9301 31.6057 48.0566C31.5762 55.9403 38.3396 62.2988 46.0074 62.2946C53.6836 62.2884 60.6157 56.0026 60.3564 48.0711Z" fill="#383738"/>
<path d="M19.54 24.6421V15.5464H72.3862V24.5778H42.5477V21.8385H39.2841V24.5881H35.8771V21.8053H32.8918C32.8918 22.5565 32.9529 23.2475 32.8622 23.9199C32.8264 24.1855 32.4638 24.5944 32.2213 24.6151C31.26 24.696 30.2859 24.6483 29.1959 24.6483V21.8115H26.2085V24.6421H19.54Z" fill="#383738"/>
<path d="M46.0559 49.5176C46.7874 49.5176 47.5253 49.4719 48.2506 49.5425C48.5036 49.5674 48.9337 49.8808 48.9358 50.0655C48.9421 52.9604 48.4656 55.764 46.8844 58.2667C46.1971 59.3541 45.7839 59.3749 45.1514 58.2542C44.4873 57.0776 43.9202 55.8076 43.5765 54.5085C43.2308 53.2073 43.2139 51.8211 43.0474 50.4743C42.9609 49.7812 43.2055 49.4512 43.9687 49.5072C44.6623 49.5591 45.3623 49.5176 46.0601 49.5197L46.0559 49.5176Z" fill="#EC268F"/>
<path d="M49.2352 46.5045H43.1275C43.1275 45.5499 42.9862 44.5808 43.1591 43.6677C43.4332 42.2212 43.8844 40.8018 44.3292 39.3927C44.5168 38.8013 44.8268 38.2265 45.1788 37.7077C45.7924 36.8049 46.2351 36.7842 46.8149 37.6745C47.3019 38.4215 47.8058 39.2267 48.0061 40.0755C48.4973 42.1445 48.8177 44.2529 49.2352 46.5045Z" fill="#EC268F"/>
<path d="M41.3312 58.1527C38.6938 56.9366 36.8891 55.1083 35.7443 52.672C35.407 51.9561 35.2488 51.153 35.0591 50.3789C34.9115 49.7771 35.1814 49.4907 35.8413 49.5094C36.887 49.5405 37.9348 49.4845 38.9784 49.5405C39.2377 49.5551 39.6404 49.8124 39.7015 50.0303C39.8976 50.7504 39.9313 51.5099 40.0895 52.2425C40.4774 54.0437 40.9011 55.8367 41.3059 57.6339C41.3333 57.7604 41.3207 57.8953 41.3333 58.1527H41.3312Z" fill="#EC268F"/>
<path d="M50.7067 58.1548C51.0019 56.8951 51.3013 55.7703 51.5268 54.631C51.803 53.2365 52.0729 51.8378 52.231 50.4287C52.309 49.7294 52.5241 49.4575 53.2472 49.5073C54.0104 49.5592 54.782 49.5177 55.5495 49.5198C57.0126 49.5198 57.3605 49.9535 56.8629 51.3086C55.7518 54.3364 53.8586 56.7042 50.7088 58.1568L50.7067 58.1548Z" fill="#EC268F"/>
<path d="M41.152 38.1519C40.6207 40.9223 40.0979 43.6595 39.5561 46.4797H35.0991C34.5299 44.1596 37.9432 39.0567 41.1499 38.1519H41.152Z" fill="#EC268F"/>
<path d="M50.8312 38.0106C54.3604 39.7517 56.4835 42.5035 57.1328 46.463H52.4841C51.938 43.6677 51.392 40.8723 50.8333 38.0106H50.8312Z" fill="#EC268F"/>
<path d="M31.273 86.0334H32.365V94.6134H31.273V86.0334ZM24.812 96.6284H32.716V97.5124H24.812V96.6284ZM24.812 93.7294H25.878V96.9274H24.812V93.7294ZM26.06 86.8394C27.815 86.8394 29.115 88.0354 29.115 89.7384C29.115 91.4284 27.815 92.6374 26.06 92.6374C24.305 92.6374 22.992 91.4284 22.992 89.7384C22.992 88.0354 24.305 86.8394 26.06 86.8394ZM26.06 87.7754C24.916 87.7754 24.045 88.5814 24.045 89.7384C24.045 90.8824 24.916 91.6884 26.06 91.6884C27.204 91.6884 28.075 90.8824 28.075 89.7384C28.075 88.5814 27.204 87.7754 26.06 87.7754ZM36.056 92.3514H44.129V93.2224H36.056V92.3514ZM34.691 95.3674H45.338V96.2644H34.691V95.3674ZM36.056 87.0214H43.999V87.9054H37.148V92.6244H36.056V87.0214ZM36.797 89.6474H43.752V90.5054H36.797V89.6474ZM54.606 86.0074H55.685V97.7854H54.606V86.0074ZM55.425 90.6874H57.609V91.5974H55.425V90.6874ZM47.118 94.0544H48.054C50.264 94.0544 51.798 93.9764 53.579 93.6384L53.696 94.5354C51.863 94.8604 50.303 94.9514 48.054 94.9514H47.118V94.0544ZM47.092 87.1124H52.409V91.3244H48.184V94.4184H47.118V90.4404H51.343V87.9964H47.092V87.1124ZM62.678 88.6984H65.707V89.5824H62.678V88.6984ZM59.22 87.0864H60.299V91.9744H59.22V87.0864ZM59.22 91.6234H59.961C61.274 91.6234 62.561 91.5454 64.056 91.2334L64.173 92.1304C62.626 92.4554 61.339 92.5204 59.961 92.5204H59.22V91.6234ZM67.527 86.0204H68.554V93.9894H67.527V86.0204ZM65.174 86.2544H66.188V92.9234H65.174V86.2544ZM64.082 93.3784H65.005V93.8074C65.005 95.8614 62.886 97.3304 60.507 97.7334L60.104 96.8884C62.184 96.5764 64.082 95.3154 64.082 93.8074V93.3784ZM64.238 93.3784H65.161V93.8074C65.161 95.3154 67.059 96.5764 69.139 96.8884L68.736 97.7334C66.37 97.3304 64.238 95.8614 64.238 93.8074V93.3784Z" fill="black"/>
</g>
<defs>
<clipPath id="clip0_15_3050">
<rect width="92" height="111" fill="white"/>
</clipPath>
</defs>
</svg>
