<svg width="92" height="111" viewBox="0 0 92 111" fill="none" xmlns="http://www.w3.org/2000/svg">
<g clip-path="url(#clip0_15_3077)">
<path d="M84 0.673096H8C3.85786 0.673096 0.5 4.03096 0.5 8.1731V102.173C0.5 106.315 3.85786 109.673 8 109.673H84C88.1421 109.673 91.5 106.315 91.5 102.173V8.1731C91.5 4.03096 88.1421 0.673096 84 0.673096Z" fill="white"/>
<path d="M84 0.673096H8C3.85786 0.673096 0.5 4.03096 0.5 8.1731V102.173C0.5 106.315 3.85786 109.673 8 109.673H84C88.1421 109.673 91.5 106.315 91.5 102.173V8.1731C91.5 4.03096 88.1421 0.673096 84 0.673096Z" stroke="#E9E9E9"/>
<path d="M46.5299 68.129C45.4036 67.7247 44.2457 67.3836 43.1573 66.8997C40.6115 65.7704 39.4008 63.8161 39.4114 61.0899C39.4367 53.5464 39.4915 46.003 39.3861 38.4615C39.3418 35.2146 40.6685 32.8355 43.3493 31.0467C47.0108 28.6023 50.6598 26.1416 54.3488 23.7339C54.8676 23.395 55.5637 23.1662 56.1859 23.152C57.386 23.1234 58.0715 23.8075 58.1938 25.2737C58.2824 26.3315 58.1728 27.4383 57.9344 28.4777C57.6159 29.8684 55.9138 30.334 54.8212 29.3558C54.2623 28.8555 53.889 28.8861 53.3089 29.2823C50.6324 31.1141 47.9073 32.8805 45.2454 34.7306C44.7076 35.1043 44.2478 35.6822 43.9441 36.2601C43.1911 37.6876 43.9124 38.7882 45.5808 38.874C47.8166 38.9904 49.7781 38.1899 51.514 36.9606C55.9918 33.7872 60.4022 30.5219 64.8484 27.3056C65.5824 26.7746 66.3354 26.3478 67.3141 26.8624C68.24 27.3485 68.4889 28.0795 68.4868 29.0373C68.4699 37.4629 68.4657 45.8886 68.491 54.3163C68.4931 55.2557 68.1641 55.9602 67.4216 56.4993C62.8678 59.8075 58.3373 63.1483 53.7266 66.381C52.7542 67.063 51.4739 67.3306 50.335 67.79C50.0502 67.9044 49.7634 68.0187 49.4765 68.1331H46.5278L46.5299 68.129ZM54.0893 49.1233C54.5091 48.917 54.7094 48.8558 54.8655 48.7394C57.5147 46.7626 60.1638 44.7838 62.8004 42.7907C63.3108 42.4048 64.0975 42.0045 64.1819 41.5165C64.3865 40.3566 64.2473 39.1415 64.2473 37.9612C64.0174 37.9612 63.9288 37.9326 63.8845 37.9653C60.7418 40.3116 57.6012 42.66 54.469 45.0207C54.2939 45.1534 54.1104 45.3965 54.1041 45.5945C54.0682 46.7034 54.0872 47.8122 54.0872 49.1233H54.0893Z" fill="#EC268F"/>
<path d="M38.108 20.9489C35.4613 22.5874 32.8844 24.178 30.3138 25.779C29.7896 26.1062 29.2865 26.4648 28.7791 26.8171C27.6735 27.5822 27.5847 28.6953 27.7877 29.8565C27.9124 30.5757 28.5466 30.6674 29.166 30.6861C30.9945 30.7424 32.5631 29.9732 34.0281 29.0476C38.6809 26.1062 43.2977 23.1065 47.9294 20.1296C48.3332 19.8691 48.7264 19.5918 49.1428 19.3542C50.3541 18.66 51.4724 18.8038 52.1341 19.7231C52.9014 20.7863 52.7725 21.9016 51.5887 22.7792C50.0455 23.9216 48.405 24.9347 46.8111 26.0103C44.9001 27.2986 42.9722 28.564 41.0908 29.8961C39.5243 31.003 38.6936 32.6332 38.3617 34.4364C38.0763 35.9915 37.96 37.5967 37.9473 39.181C37.9008 45.0388 37.9304 50.8986 37.9283 56.7564C37.9283 58.8473 37.5499 59.2955 35.4973 59.7958C32.3855 60.5546 29.371 60.2231 26.5151 58.8744C24.659 57.9989 23.5006 56.5646 23.509 54.3612C23.5429 45.8684 23.5154 37.3736 23.5408 28.8809C23.5471 26.4064 24.7246 24.4886 26.7899 23.1628C30.6394 20.6862 34.5312 18.2785 38.4103 15.8499C39.9133 14.9097 41.0316 15.0035 41.7926 16.1772C42.004 16.5024 42.0949 16.9422 42.1203 17.3362C42.171 18.1659 42.1034 19.0019 42.1499 19.8315C42.2112 20.9218 41.7968 21.7181 40.7652 22.1184C39.7548 22.5124 39.0614 21.8911 38.3891 21.2783C38.3152 21.2095 38.2581 21.124 38.1143 20.951L38.108 20.9489Z" fill="#383738"/>
<path d="M30.0505 91.1731H38.1235V92.0571H30.0505V91.1731ZM28.7115 95.0601H39.3585V95.9701H28.7115V95.0601ZM33.4695 91.5501H34.5485V95.4241H33.4695V91.5501ZM30.0505 86.6231H38.0065V87.5071H31.1295V91.5631H30.0505V86.6231ZM46.5335 89.6651H49.8095V90.5491H46.5335V89.6651ZM43.6995 86.7011H44.5835V88.7941C44.5835 91.4331 43.1925 93.9551 41.3335 94.9561L40.6445 94.0981C42.3735 93.2401 43.6995 90.9781 43.6995 88.7941V86.7011ZM43.9075 86.7011H44.7785V88.7941C44.7785 90.9391 46.1045 93.0711 47.8075 93.8771L47.1705 94.7481C45.2725 93.7861 43.9075 91.3681 43.9075 88.7941V86.7011ZM49.2765 85.6741H50.3425V97.4521H49.2765V85.6741ZM53.2535 86.5971H58.4535V87.4811H53.2535V86.5971ZM55.0215 89.2231H56.0875V92.1611H55.0215V89.2231ZM58.0245 86.5971H59.0905V87.2211C59.0905 87.9881 59.0905 89.1581 58.7785 90.7051L57.7255 90.5881C58.0245 89.0411 58.0245 87.9751 58.0245 87.2211V86.5971ZM60.6895 85.6871H61.7685V94.5401H60.6895V85.6871ZM61.2745 89.5091H63.4455V90.4061H61.2745V89.5091ZM54.3455 96.2951H62.1455V97.1791H54.3455V96.2951ZM54.3455 93.7211H55.4115V96.5681H54.3455V93.7211ZM52.6555 92.6681L52.5385 91.7841C54.6315 91.7841 57.5175 91.7321 59.8965 91.4071L59.9745 92.1871C57.5305 92.6161 54.7225 92.6681 52.6555 92.6681Z" fill="black"/>
</g>
<defs>
<clipPath id="clip0_15_3077">
<rect width="92" height="111" fill="white"/>
</clipPath>
</defs>
</svg>
