<svg width="92" height="111" viewBox="0 0 92 111" fill="none" xmlns="http://www.w3.org/2000/svg">
<g clip-path="url(#clip0_15_3083)">
<path d="M84 1.33972H8C3.85786 1.33972 0.5 4.69759 0.5 8.83972V102.84C0.5 106.982 3.85786 110.34 8 110.34H84C88.1421 110.34 91.5 106.982 91.5 102.84V8.83972C91.5 4.69759 88.1421 1.33972 84 1.33972Z" fill="white"/>
<path d="M84 1.33972H8C3.85786 1.33972 0.5 4.69759 0.5 8.83972V102.84C0.5 106.982 3.85786 110.34 8 110.34H84C88.1421 110.34 91.5 106.982 91.5 102.84V8.83972C91.5 4.69759 88.1421 1.33972 84 1.33972Z" stroke="#E9E9E9"/>
<path d="M62.5384 36.6908V37.989C62.5384 47.4944 62.5384 57.0018 62.5384 66.5072C62.5384 68.2753 62.0241 68.7929 60.2718 68.795C57.7585 68.795 55.2451 68.795 52.5887 68.795C52.5887 68.3664 52.5887 68.002 52.5887 67.6397C52.5887 64.3684 52.568 61.095 52.597 57.8238C52.6095 56.3372 51.78 55.6829 50.488 55.6581C47.4874 55.6001 44.4847 55.6001 41.484 55.6581C40.1921 55.6829 39.3647 56.3372 39.3771 57.8258C39.4041 61.4367 39.3854 65.0496 39.3854 68.7225C39.0599 68.7515 38.7944 68.7929 38.5311 68.795C36.1505 68.7991 33.7698 68.8033 31.3892 68.795C30.0496 68.7908 29.4379 68.1759 29.4358 66.8177C29.4296 62.2358 29.4337 57.656 29.4337 53.0742C29.4337 48.0451 29.4337 43.016 29.4337 37.989V36.8151C28.683 36.9476 28.007 37.2105 27.3704 37.138C26.6861 37.0614 26.01 36.5211 26.1821 35.7695C26.3211 35.1711 26.7814 34.4175 27.3061 34.1711C32.7682 31.6162 38.2636 29.1296 43.7796 26.6927C44.3582 26.436 44.3603 26.1295 44.3603 25.6968C44.3665 23.1481 44.3603 20.5994 44.3644 18.0507C44.3685 16.4937 44.9678 15.8871 46.4962 15.885C48.462 15.8809 50.43 15.8747 52.3959 15.8871C53.5571 15.8954 54.2 16.5331 54.2415 17.6842C54.2498 17.8913 54.2332 18.0983 54.2456 18.3033C54.3555 20.204 53.4597 20.6098 51.8546 20.7299C50.4901 20.8334 49.1111 20.7505 47.6201 20.7505C47.6201 22.5953 47.6098 24.3407 47.6367 26.084C47.6388 26.26 47.8213 26.5209 47.9872 26.5975C51.0106 27.9929 54.0424 29.3739 57.0783 30.7404C59.6331 31.8895 62.2003 33.0075 64.7531 34.1608C65.6178 34.5521 66.0595 35.5397 65.7422 36.2291C65.3835 37.0076 64.5291 37.314 63.5773 37.0055C63.2973 36.9144 63.0132 36.8337 62.5363 36.6888L62.5384 36.6908ZM45.9342 36.0552C42.1683 35.8254 39.3668 39.2934 39.4186 42.4673C39.4746 45.8898 42.1829 49.0141 46.0835 48.9602C49.8452 48.9085 52.5535 45.8277 52.5452 42.368C52.539 39.2105 49.7643 35.7943 45.9342 36.0552Z" fill="#383738"/>
<path d="M27.4587 59.6794C27.4587 62.3798 27.4282 65.0824 27.4775 67.7828C27.4916 68.5782 27.205 68.8271 26.3382 68.7976C24.7386 68.7469 23.1365 68.7933 21.5345 68.7786C20.3083 68.7659 19.5731 68.1056 19.5707 66.9938C19.5613 62.0824 19.5989 57.171 19.5402 52.2617C19.5261 51.1203 20.2825 50.4262 21.6942 50.3313C23.2469 50.2258 24.8161 50.3102 26.3782 50.3039C27.2778 50.2996 27.4611 50.8018 27.4587 51.4726C27.4517 54.2089 27.4564 56.9452 27.4564 59.6815L27.4587 59.6794Z" fill="#EC268F"/>
<path d="M64.5339 59.6606C64.5339 57.098 64.5597 54.5353 64.5245 51.9748C64.5057 50.5773 64.6067 50.2079 66.4519 50.2881C67.621 50.3388 68.7948 50.2839 69.9639 50.3008C71.6049 50.324 72.4853 51.1177 72.4595 52.4814C72.3655 57.2542 72.4266 62.027 72.4219 66.8019C72.4219 68.1719 71.734 68.7798 70.2034 68.7862C68.6422 68.7925 67.0787 68.7608 65.5199 68.7988C64.7452 68.8178 64.5151 68.5518 64.5222 67.8742C64.555 65.1364 64.5362 62.3985 64.5362 59.6606H64.5339Z" fill="#EC268F"/>
<path d="M33.786 97.0918V87.6372H34.6492V96.3162H39.1549V97.0918H33.786ZM41.0985 87.6372H42.0956L45.5257 95.873H45.6088L49.0388 87.6372H50.036V97.0918H49.2235V89.4607H49.1496L45.9596 97.0918H45.1748L41.9848 89.4607H41.911V97.0918H41.0985V87.6372ZM57.6831 90.0009C57.6308 89.4746 57.3985 89.056 56.9861 88.7452C56.5737 88.4343 56.0551 88.2789 55.4303 88.2789C54.9902 88.2789 54.6024 88.3543 54.267 88.5051C53.9346 88.6559 53.673 88.8652 53.4822 89.133C53.2944 89.3976 53.2006 89.6992 53.2006 90.0378C53.2006 90.2871 53.2544 90.5056 53.3621 90.6933C53.4698 90.8811 53.6145 91.0426 53.7961 91.1781C53.9807 91.3104 54.1839 91.4243 54.4055 91.5197C54.6301 91.6151 54.8563 91.6951 55.0841 91.7597L56.0812 92.046C56.3828 92.1291 56.6845 92.2352 56.9861 92.3645C57.2877 92.4938 57.5631 92.6569 57.8124 92.8538C58.0648 93.0477 58.2664 93.2863 58.4172 93.5694C58.5711 93.8495 58.648 94.1865 58.648 94.5804C58.648 95.0851 58.5172 95.5391 58.2556 95.9423C57.994 96.3454 57.6185 96.6655 57.1292 96.9025C56.6398 97.1364 56.0535 97.2533 55.3703 97.2533C54.7271 97.2533 54.1685 97.1472 53.6945 96.9348C53.2206 96.7194 52.8482 96.4224 52.5773 96.0438C52.3065 95.6653 52.1541 95.2267 52.1203 94.7281H53.0067C53.0374 95.1005 53.1605 95.416 53.376 95.6745C53.5914 95.933 53.8715 96.13 54.2162 96.2654C54.5609 96.3978 54.9456 96.4639 55.3703 96.4639C55.8412 96.4639 56.2597 96.3854 56.626 96.2285C56.9953 96.0684 57.2846 95.8469 57.4939 95.5637C57.7062 95.2775 57.8124 94.9451 57.8124 94.5666C57.8124 94.2465 57.7293 93.9787 57.5631 93.7633C57.3969 93.5448 57.1646 93.3617 56.866 93.2139C56.5706 93.0662 56.2274 92.9354 55.8366 92.8215L54.7055 92.4891C53.9638 92.2675 53.3883 91.9613 52.979 91.5705C52.5696 91.1796 52.365 90.681 52.365 90.0747C52.365 89.5669 52.5004 89.1206 52.7712 88.7359C53.0451 88.3482 53.4144 88.0465 53.8792 87.8311C54.347 87.6126 54.8717 87.5033 55.4534 87.5033C56.0412 87.5033 56.5613 87.6111 57.0138 87.8265C57.4662 88.0419 57.8247 88.3389 58.0894 88.7175C58.3572 89.0929 58.5003 89.5207 58.5187 90.0009H57.6831Z" fill="black"/>
</g>
<defs>
<clipPath id="clip0_15_3083">
<rect width="92" height="111" fill="white"/>
</clipPath>
</defs>
</svg>
