<svg width="92" height="111" viewBox="0 0 92 111" fill="none" xmlns="http://www.w3.org/2000/svg">
<g clip-path="url(#clip0_15_3090)">
<path d="M84 1.33972H8C3.85786 1.33972 0.5 4.69759 0.5 8.83972V102.84C0.5 106.982 3.85786 110.34 8 110.34H84C88.1421 110.34 91.5 106.982 91.5 102.84V8.83972C91.5 4.69759 88.1421 1.33972 84 1.33972Z" fill="white"/>
<path d="M84 1.33972H8C3.85786 1.33972 0.5 4.69759 0.5 8.83972V102.84C0.5 106.982 3.85786 110.34 8 110.34H84C88.1421 110.34 91.5 106.982 91.5 102.84V8.83972C91.5 4.69759 88.1421 1.33972 84 1.33972Z" stroke="#E9E9E9"/>
<path d="M72.46 43.354C72.2161 43.4539 71.9739 43.6333 71.7266 43.6384C70.4833 43.6672 69.2399 43.6316 67.9966 43.6621C67.4525 43.6757 67.2496 43.4776 67.2155 42.9442C67.0893 41.0225 67.0756 41.0242 69.0285 41.0242C69.9051 41.0242 70.7817 41.0005 71.6567 41.0377C71.9279 41.0496 72.1922 41.2291 72.46 41.3324V43.3557V43.354Z" fill="#383738"/>
<path d="M61.876 19.8488V64.8308C56.311 59.1086 50.7708 53.7768 43.3556 51.0655C43.3556 45.377 43.3432 39.7477 43.3867 34.1184C43.3888 33.7892 43.7882 33.2807 44.111 33.1647C48.7158 31.5126 52.5279 28.5945 56.1268 25.3578C58.0308 23.6467 59.8292 21.8152 61.8739 19.8488H61.876Z" fill="#383738"/>
<path d="M40.708 33.1461V48.8527C40.5253 48.8905 40.369 48.9493 40.2148 48.9493C35.9074 48.9388 31.5959 48.9976 27.2905 48.88C24.4446 48.8022 22.1224 47.5653 20.6021 44.936C17.8414 40.1688 20.8274 34.3095 25.3682 33.4443C26.2492 33.2763 27.1464 33.123 28.0375 33.1146C32.008 33.0726 35.9804 33.0831 39.9529 33.0789C40.1802 33.0789 40.4076 33.1188 40.708 33.1482V33.1461Z" fill="#EC268F"/>
<path d="M40.3835 58.1686H37.4974V64.8276C35.0132 64.8276 32.6867 64.8454 30.3602 64.7964C30.1498 64.792 29.828 64.3712 29.7649 64.0929C29.3884 62.412 29.0644 60.7177 28.7384 59.0235C28.3156 56.8238 27.9033 54.6242 27.4994 52.4223C27.4552 52.1796 27.4931 51.9191 27.4931 51.6008H37.4533C37.4533 52.4067 37.4722 53.2305 37.4469 54.052C37.428 54.7533 37.6846 55.0027 38.3725 55.0138C40.7747 55.0516 40.9388 55.2943 40.5412 57.8724C40.5307 57.9392 40.476 57.9993 40.3835 58.1708V58.1686Z" fill="#EC268F"/>
<path d="M69.8122 32.6626C68.4328 33.7163 67.1682 34.6834 65.8046 35.7248C65.363 34.9742 64.9232 34.2793 64.5435 33.541C64.4728 33.4049 64.5877 32.9904 64.7237 32.8832C65.7604 32.046 66.8096 31.2232 67.8941 30.4706C68.0601 30.3551 68.5176 30.5221 68.6695 30.7283C69.0775 31.2851 69.3936 31.9347 69.814 32.6626H69.8122Z" fill="#383738"/>
<path d="M69.8122 49.1672C69.3819 49.9575 69.0433 50.5315 68.7453 51.1355C68.5019 51.6324 68.2426 51.7459 67.83 51.4053C66.86 50.6065 65.8847 49.814 64.8883 49.0665C64.4685 48.7517 64.4227 48.514 64.6837 47.985C65.7066 45.9032 65.6836 45.8968 67.3185 47.2182C68.1227 47.8672 68.9428 48.4883 69.814 49.1672H69.8122Z" fill="#383738"/>
<path d="M27.997 93.7638C30.493 93.7638 32.092 94.5828 32.092 95.9348C32.092 97.2738 30.493 98.0798 27.997 98.0798C25.488 98.0798 23.902 97.2738 23.902 95.9348C23.902 94.5828 25.488 93.7638 27.997 93.7638ZM27.997 94.6088C26.151 94.6088 24.968 95.1158 24.968 95.9348C24.968 96.7408 26.151 97.2478 27.997 97.2478C29.843 97.2478 31.013 96.7408 31.013 95.9348C31.013 95.1158 29.843 94.6088 27.997 94.6088ZM23.993 86.9388H31.559V87.8228H23.993V86.9388ZM22.732 91.8268H33.34V92.6978H22.732V91.8268ZM27.087 89.5648H28.153V92.0738H27.087V89.5648ZM30.935 86.9388H31.988V87.9398C31.988 88.8888 31.988 89.8378 31.676 91.0598L30.61 90.9298C30.935 89.7208 30.935 88.8628 30.935 87.9398V86.9388ZM37.798 88.0308H38.669V89.9418C38.669 92.4248 37.174 94.9208 35.302 95.8438L34.678 94.9858C36.381 94.1798 37.798 91.9698 37.798 89.9418V88.0308ZM38.006 88.0308H38.877V89.9418C38.877 91.9308 40.294 93.9588 42.023 94.6998L41.412 95.5578C39.514 94.6738 38.006 92.3858 38.006 89.9418V88.0308ZM35.068 87.5498H41.633V88.4598H35.068V87.5498ZM43.219 86.3538H44.298V98.1058H43.219V86.3538ZM49.523 87.3678H50.407V89.4738C50.407 92.0738 49.003 94.6088 47.144 95.5968L46.481 94.7388C48.184 93.8808 49.523 91.6188 49.523 89.4738V87.3678ZM49.718 87.3678H50.589V89.4738C50.589 91.5408 51.902 93.6858 53.566 94.5178L52.903 95.3758C51.083 94.4008 49.718 91.9958 49.718 89.4738V87.3678ZM54.593 86.3538H55.685V98.1058H54.593V86.3538ZM55.425 91.1118H57.609V92.0218H55.425V91.1118ZM66.643 86.3538H67.722V93.9198H66.643V86.3538ZM67.423 89.6168H69.464V90.5138H67.423V89.6168ZM64.03 94.0238C66.409 94.0238 67.852 94.7648 67.852 96.0518C67.852 97.3388 66.409 98.0798 64.03 98.0798C61.664 98.0798 60.208 97.3388 60.208 96.0518C60.208 94.7648 61.664 94.0238 64.03 94.0238ZM64.03 94.8558C62.314 94.8558 61.274 95.2978 61.274 96.0518C61.274 96.8188 62.314 97.2478 64.03 97.2478C65.759 97.2478 66.799 96.8188 66.799 96.0518C66.799 95.2978 65.759 94.8558 64.03 94.8558ZM58.635 87.6798H65.577V88.5378H58.635V87.6798ZM62.106 89.1358C63.783 89.1358 64.914 89.9418 64.914 91.2028C64.914 92.4768 63.783 93.2828 62.106 93.2828C60.416 93.2828 59.285 92.4768 59.285 91.2028C59.285 89.9418 60.416 89.1358 62.106 89.1358ZM62.106 89.9548C61.027 89.9548 60.312 90.4488 60.312 91.2028C60.312 91.9698 61.027 92.4638 62.106 92.4638C63.159 92.4638 63.887 91.9698 63.887 91.2028C63.887 90.4488 63.159 89.9548 62.106 89.9548ZM61.56 86.2498H62.639V88.1608H61.56V86.2498Z" fill="black"/>
</g>
<defs>
<clipPath id="clip0_15_3090">
<rect width="92" height="111" fill="white"/>
</clipPath>
</defs>
</svg>
