<svg width="92" height="111" viewBox="0 0 92 111" fill="none" xmlns="http://www.w3.org/2000/svg">
<g clip-path="url(#clip0_15_3062)">
<path d="M84 0.673096H8C3.85786 0.673096 0.5 4.03096 0.5 8.1731V102.173C0.5 106.315 3.85786 109.673 8 109.673H84C88.1421 109.673 91.5 106.315 91.5 102.173V8.1731C91.5 4.03096 88.1421 0.673096 84 0.673096Z" fill="white"/>
<path d="M84 0.673096H8C3.85786 0.673096 0.5 4.03096 0.5 8.1731V102.173C0.5 106.315 3.85786 109.673 8 109.673H84C88.1421 109.673 91.5 106.315 91.5 102.173V8.1731C91.5 4.03096 88.1421 0.673096 84 0.673096Z" stroke="#E9E9E9"/>
<path d="M19.54 50.6161C19.54 43.9904 19.54 37.3647 19.54 30.7368C19.6541 30.6115 19.8263 30.5053 19.872 30.3567C20.399 28.6387 21.5485 27.6767 23.2811 27.5556C24.8912 27.4409 26.5117 27.4176 28.1281 27.4303C29.0701 27.4367 29.4 27.0629 29.3855 26.1094C29.3461 23.2914 29.3627 20.4712 29.3751 17.6531C29.3834 15.6293 29.7694 15.2216 31.7281 15.2195C41.2686 15.211 50.8071 15.211 60.3476 15.2195C62.1901 15.2195 62.5636 15.5932 62.7192 17.4705C62.7504 17.8549 62.74 18.2456 62.7421 18.6321C62.7441 21.1699 62.7587 23.7076 62.7379 26.2432C62.7317 27.0884 63.0429 27.4325 63.8999 27.4282C65.5826 27.424 67.2675 27.5089 68.9523 27.5684C70.8716 27.6363 72.434 29.6856 72.4403 31.565C72.4631 37.662 72.4714 43.7568 72.4361 49.8537C72.4257 51.8457 70.8301 53.8398 68.7531 53.8759C67.2737 53.9014 65.7943 53.9375 64.3148 53.9502C62.8043 53.9651 62.7545 53.9969 62.7483 55.5535C62.7379 57.9851 62.7773 60.4167 62.7275 62.8482C62.686 64.9272 62.1984 65.4709 60.3849 65.4751C50.8112 65.4921 41.2375 65.49 31.6617 65.4751C29.8441 65.473 29.3876 64.957 29.3793 63.0585C29.3668 60.4867 29.3793 57.9129 29.3731 55.3412C29.3689 54.0882 29.2361 53.9736 27.9891 53.9545C26.3375 53.9268 24.6837 53.9332 23.0362 53.8377C21.8805 53.7718 20.9883 53.1347 20.372 52.1345C20.0649 51.6439 19.8139 51.1237 19.54 50.6161ZM59.1524 61.8119V47.161H32.8527V61.8119H59.1524ZM32.7905 18.836C32.7905 21.3037 32.8527 23.6949 32.7635 26.0818C32.722 27.2031 33.1204 27.4409 34.1184 27.4325C39.3887 27.3942 44.6591 27.4155 49.9294 27.4155C52.6849 27.4155 55.4404 27.3963 58.1959 27.424C58.9885 27.4325 59.3122 27.1776 59.25 26.3218C59.1773 25.3407 59.2334 24.3489 59.2334 23.3615C59.2334 21.8622 59.2334 20.3608 59.2334 18.836H32.7905ZM58.6897 38.1249C59.5819 38.0485 60.4762 38.023 61.3519 37.885C62.4142 37.7172 62.6757 36.9399 62.601 35.9503C62.5263 34.9586 61.8768 34.4893 61.0551 34.4383C59.5135 34.3449 57.9593 34.3703 56.4135 34.4256C55.5234 34.4574 54.7391 35.2644 54.7287 36.0969C54.7162 37.0525 55.2225 37.7066 56.1313 37.8807C56.9675 38.04 57.8307 38.0506 58.6897 38.127V38.1249Z" fill="#383738"/>
<path d="M44.7026 54.9144C47.0653 54.9144 49.4299 54.9389 51.7926 54.9036C53.255 54.8822 53.7723 55.5181 53.921 56.1678C54.0758 56.8467 53.1552 57.478 51.9128 57.5178C50.3281 57.5699 48.7395 57.5408 47.1528 57.5424C44.1812 57.5439 41.2096 57.547 38.24 57.5378C37.7715 57.5362 37.2949 57.5041 36.8407 57.4244C35.969 57.2696 35.3416 56.6735 35.4231 56.1433C35.527 55.4599 36.3071 54.9266 37.3092 54.9205C39.7736 54.9052 42.2381 54.9159 44.7026 54.9144Z" fill="#EC268F"/>
<path d="M44.683 52.2496C42.1983 52.2496 39.7156 52.2716 37.2309 52.2402C35.7339 52.2214 34.9536 51.205 35.7072 50.2749C35.9105 50.024 36.3356 49.8248 36.7134 49.7213C37.1159 49.6115 37.5841 49.6177 38.0235 49.6177C42.4816 49.6115 46.9377 49.6036 51.3958 49.6256C52.018 49.6287 52.7717 49.6601 53.2234 49.922C53.6444 50.1667 54.0038 50.7643 53.9278 51.1533C53.7984 51.8152 53.1475 52.2575 52.133 52.2527C49.6483 52.2402 47.1657 52.248 44.6809 52.248L44.683 52.2496Z" fill="#EC268F"/>
<path d="M16.7395 92.5121H27.3995V93.3961H16.7395V92.5121ZM21.4975 93.0451H22.5635V97.4391H21.4975V93.0451ZM18.0915 86.3371H26.0215V90.9261H18.0915V86.3371ZM24.9685 87.2081H19.1575V90.0551H24.9685V87.2081ZM37.2525 85.7001H38.3445V94.2801H37.2525V85.7001ZM30.7915 96.2951H38.6955V97.1791H30.7915V96.2951ZM30.7915 93.3961H31.8575V96.5941H30.7915V93.3961ZM32.0395 86.5061C33.7945 86.5061 35.0945 87.7021 35.0945 89.4051C35.0945 91.0951 33.7945 92.3041 32.0395 92.3041C30.2845 92.3041 28.9715 91.0951 28.9715 89.4051C28.9715 87.7021 30.2845 86.5061 32.0395 86.5061ZM32.0395 87.4421C30.8955 87.4421 30.0245 88.2481 30.0245 89.4051C30.0245 90.5491 30.8955 91.3551 32.0395 91.3551C33.1835 91.3551 34.0545 90.5491 34.0545 89.4051C34.0545 88.2481 33.1835 87.4421 32.0395 87.4421ZM40.6705 95.0341H51.3175V95.9311H40.6705V95.0341ZM41.5935 86.8571H50.3165V87.7411H41.5935V86.8571ZM41.6195 91.8231H50.3035V92.7071H41.6195V91.8231ZM43.4265 87.6761H44.5055V91.9141H43.4265V87.6761ZM47.4305 87.6761H48.4965V91.9141H47.4305V87.6761ZM61.1705 85.7001H62.2495V94.3581H61.1705V85.7001ZM54.5925 96.2951H62.5745V97.1791H54.5925V96.2951ZM54.5925 93.6691H55.6715V96.7371H54.5925V93.6691ZM53.2275 91.7971H54.1765C56.3995 91.7971 57.9465 91.7191 59.7665 91.4071L59.8835 92.2911C58.0115 92.6161 56.4515 92.6811 54.1765 92.6811H53.2275V91.7971ZM53.2015 86.5191H58.5315V89.9251H54.2805V92.0701H53.2275V89.0931H57.4785V87.4031H53.2015V86.5191ZM65.9535 92.0181H74.0265V92.8891H65.9535V92.0181ZM64.5885 95.0341H75.2355V95.9311H64.5885V95.0341ZM65.9535 86.6881H73.8965V87.5721H67.0455V92.2911H65.9535V86.6881ZM66.6945 89.3141H73.6495V90.1721H66.6945V89.3141Z" fill="black"/>
</g>
<defs>
<clipPath id="clip0_15_3062">
<rect width="92" height="111" fill="white"/>
</clipPath>
</defs>
</svg>
