<svg width="92" height="111" viewBox="0 0 92 111" fill="none" xmlns="http://www.w3.org/2000/svg">
<g clip-path="url(#clip0_15_3069)">
<path d="M84 0.673096H8C3.85786 0.673096 0.5 4.03096 0.5 8.1731V102.173C0.5 106.315 3.85786 109.673 8 109.673H84C88.1421 109.673 91.5 106.315 91.5 102.173V8.1731C91.5 4.03096 88.1421 0.673096 84 0.673096Z" fill="white"/>
<path d="M84 0.673096H8C3.85786 0.673096 0.5 4.03096 0.5 8.1731V102.173C0.5 106.315 3.85786 109.673 8 109.673H84C88.1421 109.673 91.5 106.315 91.5 102.173V8.1731C91.5 4.03096 88.1421 0.673096 84 0.673096Z" stroke="#E9E9E9"/>
<path d="M19.54 55.9566V35.2838C20.3929 32.6531 22.192 31.3754 25.0432 31.3856C33.7567 31.4182 42.4723 31.3856 51.1878 31.4141C52.0656 31.4162 53.0056 31.5099 53.8066 31.8298C55.9606 32.6938 56.6413 34.5094 56.6454 36.6348C56.6579 42.6135 56.6682 48.5902 56.6288 54.5689C56.6226 55.4268 56.4773 56.3417 56.1432 57.1263C55.282 59.1518 53.4912 59.8202 51.4057 59.8242C42.5532 59.8405 33.7007 59.8487 24.8482 59.8079C23.9538 59.8039 23.02 59.5573 22.1754 59.2414C20.6688 58.677 20.1086 57.2954 19.5421 55.9566H19.54ZM34.0119 50.037C34.0119 50.037 34.0119 50.0309 34.0119 50.0268C36.1099 50.0268 38.2079 50.0676 40.3037 50.0125C41.8663 49.9718 42.3083 49.4685 42.3104 47.9503C42.3166 45.1525 42.3166 42.3527 42.3104 39.5549C42.3062 38.1244 41.829 37.5844 40.3847 37.5008C39.3222 37.4397 38.2535 37.4764 37.1869 37.4764C34.0929 37.4764 30.9968 37.454 27.9028 37.4927C26.3153 37.511 25.8069 38.0653 25.8048 39.5773C25.8007 42.3079 25.8027 45.0405 25.8048 47.771C25.8048 49.5255 26.2427 49.9983 28.0293 50.0309C30.0235 50.0655 32.0177 50.039 34.0119 50.039V50.037ZM48.5254 47.0293C48.513 46.2814 47.7908 45.558 47.0313 45.5316C46.2469 45.503 45.4999 46.2855 45.5248 47.1088C45.5497 47.9177 46.2262 48.6024 47.0085 48.6045C47.7721 48.6065 48.5399 47.8118 48.5275 47.0293H48.5254ZM48.5275 40.4922C48.5441 39.7362 47.8468 38.9823 47.0915 38.9354C46.2573 38.8865 45.5248 39.5956 45.5227 40.4576C45.5206 41.2768 46.1867 41.9492 47.0002 41.9533C47.8074 41.9574 48.5088 41.2849 48.5275 40.4922Z" fill="#383738"/>
<path d="M72.4558 45.6151C72.4558 49.8332 72.4558 54.0513 72.4558 58.2674C72.4558 58.95 72.4766 59.6225 71.7212 60.0035C70.9182 60.4091 70.2707 60.1034 69.6523 59.6204C66.6164 57.2526 63.5577 54.9153 60.5757 52.4863C60.1026 52.1012 59.754 51.3004 59.7394 50.6829C59.6585 47.3105 59.7208 43.936 59.6855 40.5615C59.6772 39.7403 59.9698 39.133 60.5944 38.646C63.6075 36.2965 66.6309 33.9572 69.6357 31.5975C70.2852 31.0881 70.9742 30.8986 71.7316 31.2266C72.5015 31.5608 72.4558 32.2781 72.4558 32.9587C72.4517 37.1768 72.4558 41.3949 72.4558 45.611V45.6151Z" fill="#383738"/>
<path d="M53.3979 28.3677C52.8978 28.3677 52.4558 28.3392 52.0158 28.3738C51.1007 28.4451 50.3723 28.4085 50.2042 27.2164C50.0839 26.3666 49.2663 26.2912 48.5005 26.2933C43.8855 26.3035 39.2724 26.2974 34.6573 26.2974C32.6258 26.2974 30.5942 26.3035 28.5627 26.2933C27.3529 26.2872 26.5934 25.6657 26.5934 24.714C26.5934 23.7543 27.3301 23.1592 28.5731 23.1592C35.2529 23.1531 41.9348 23.1409 48.6147 23.1654C51.5987 23.1755 53.7444 25.4721 53.3979 28.3677Z" fill="#EC268F"/>
<path d="M28.9507 40.5309C32.2813 40.5309 35.4044 40.5167 38.5274 40.5615C38.7412 40.5635 39.123 40.9955 39.1313 41.238C39.1853 42.9212 39.1521 44.6064 39.1666 46.2896C39.1707 46.8724 38.8844 47.0191 38.3324 47.015C35.4812 46.9967 32.6279 47.0191 29.7766 46.9844C29.4986 46.9804 28.9922 46.6767 28.9881 46.5015C28.932 44.5555 28.9528 42.6094 28.9528 40.5309H28.9507Z" fill="#EC268F"/>
<path d="M25.618 86.9481H26.502V87.8971C26.502 90.0551 25.202 91.8621 23.226 92.5771L22.68 91.7191C24.448 91.0951 25.618 89.5741 25.618 87.8971V86.9481ZM25.813 86.9481H26.697V87.8841C26.697 89.4181 27.815 90.7961 29.544 91.3681L29.024 92.2131C27.061 91.5631 25.813 89.8861 25.813 87.8841V86.9481ZM23.005 86.5581H29.284V87.4421H23.005V86.5581ZM30.766 85.6871H31.845V92.7721H30.766V85.6871ZM31.546 88.6641H33.587V89.5741H31.546V88.6641ZM28.101 93.0841C30.493 93.0841 31.962 93.8771 31.962 95.2421C31.962 96.6201 30.493 97.4131 28.101 97.4131C25.709 97.4131 24.24 96.6201 24.24 95.2421C24.24 93.8771 25.709 93.0841 28.101 93.0841ZM28.101 93.9551C26.359 93.9551 25.293 94.4231 25.293 95.2421C25.293 96.0741 26.359 96.5681 28.101 96.5681C29.843 96.5681 30.909 96.0741 30.909 95.2421C30.909 94.4231 29.843 93.9551 28.101 93.9551ZM43.219 85.6741H44.298V97.4521H43.219V85.6741ZM35.354 86.6751H36.42V89.7821H39.813V86.6751H40.892V94.6181H35.354V86.6751ZM36.42 90.6401V93.7341H39.813V90.6401H36.42ZM55.581 85.6871H56.621V97.4391H55.581V85.6871ZM53.592 90.3931H55.854V91.2901H53.592V90.3931ZM52.916 85.9471H53.93V96.8411H52.916V85.9471ZM47.066 93.6431H47.833C49.549 93.6431 50.719 93.5781 52.084 93.2921L52.188 94.1891C50.784 94.4881 49.601 94.5401 47.833 94.5401H47.066V93.6431ZM47.066 87.1171H51.434V88.0011H48.132V94.0461H47.066V87.1171ZM63.9 88.3001H67.449V89.1971H63.9V88.3001ZM63.9 92.0181H67.449V92.9151H63.9V92.0181ZM61.742 86.5841C63.445 86.5841 64.667 88.1831 64.667 90.6791C64.667 93.1881 63.445 94.7871 61.742 94.7871C60.026 94.7871 58.817 93.1881 58.817 90.6791C58.817 88.1831 60.026 86.5841 61.742 86.5841ZM61.742 87.5591C60.611 87.5591 59.831 88.7811 59.831 90.6791C59.831 92.5901 60.611 93.8381 61.742 93.8381C62.873 93.8381 63.653 92.5901 63.653 90.6791C63.653 88.7811 62.873 87.5591 61.742 87.5591ZM67.215 85.6741H68.281V97.4521H67.215V85.6741Z" fill="black"/>
</g>
<defs>
<clipPath id="clip0_15_3069">
<rect width="92" height="111" fill="white"/>
</clipPath>
</defs>
</svg>
