<svg width="92" height="111" viewBox="0 0 92 111" fill="none" xmlns="http://www.w3.org/2000/svg">
<g clip-path="url(#clip0_14_2838)">
<path d="M84 0.673096H8C3.85786 0.673096 0.5 4.03096 0.5 8.1731V102.173C0.5 106.315 3.85786 109.673 8 109.673H84C88.1421 109.673 91.5 106.315 91.5 102.173V8.1731C91.5 4.03096 88.1421 0.673096 84 0.673096Z" fill="white"/>
<path d="M84 0.673096H8C3.85786 0.673096 0.5 4.03096 0.5 8.1731V102.173C0.5 106.315 3.85786 109.673 8 109.673H84C88.1421 109.673 91.5 106.315 91.5 102.173V8.1731C91.5 4.03096 88.1421 0.673096 84 0.673096Z" stroke="#E9E9E9"/>
<path d="M72.46 31.783V31.9906C72.3875 32.3913 72.2838 32.7898 72.2506 33.1926C71.9356 36.9727 71.2578 40.674 69.9498 44.2487C68.4159 48.4461 66.2456 52.2574 63.0762 55.4314C62.5767 55.9317 61.7061 56.322 61.0034 56.3241C47.8574 56.376 34.7135 56.3594 21.5675 56.3697C20.701 56.3697 19.9817 56.1102 19.6438 55.3007C19.3267 54.5409 19.7931 53.9908 20.274 53.3867C21.7354 51.5495 23.29 49.7477 24.4715 47.732C27.1165 43.2232 28.4327 38.2722 28.7229 33.0493C28.8058 31.5713 28.8411 31.5609 30.2796 31.5609C43.8381 31.5609 57.3966 31.5589 70.9551 31.5692C71.4567 31.5692 71.9584 31.7083 72.46 31.781V31.783Z" fill="#EC268F"/>
<path d="M72.46 64.6464C71.6682 65.5847 70.6089 65.5723 69.5 65.5702C56.7789 65.5515 44.0558 65.5432 31.3347 65.5723C29.3137 65.5764 28.9033 65.1384 28.9613 63.1954C28.9882 62.3007 29.0069 61.4039 28.9551 60.5113C28.9032 59.6228 29.2183 59.3322 30.1345 59.3363C36.1852 59.3758 42.2379 59.3571 48.2885 59.3571C52.5524 59.3571 56.8162 59.3218 61.078 59.3758C62.7259 59.3965 64.0194 58.8568 65.1947 57.7047C67.9391 55.0123 69.9788 51.859 71.6163 48.4089C71.8133 47.9937 72.1719 47.6574 72.4559 47.2859V64.6464H72.46Z" fill="#383738"/>
<path d="M72.46 28.2708C72.118 28.2998 71.778 28.3517 71.436 28.3517C57.6495 28.3559 43.863 28.3559 30.0765 28.3517C29.7718 28.3517 29.465 28.3247 29.0504 28.306C29.0504 26.6038 28.9343 24.9265 29.0981 23.2783C29.1852 22.4022 30.1159 22.1656 30.9471 22.1594C33.0448 22.1448 35.1425 22.1303 37.2382 22.1656C37.9429 22.1781 38.1979 21.9705 38.1958 21.2356C38.1917 19.8365 38.7555 19.1743 39.7857 19.1867C40.8076 19.1971 41.2906 19.8448 41.3569 21.2834C41.3673 21.52 41.3984 21.7546 41.4274 22.0701H48.8938C49.2255 20.9118 48.7135 19.2179 50.5811 19.2179C52.4923 19.2179 52.0694 20.8703 52.2083 22.0929H60.0105C60.0105 21.6508 59.998 21.2481 60.0126 20.8474C60.0519 19.8593 60.6137 19.2179 61.4573 19.1846C62.4668 19.1431 62.9353 19.606 63.0513 20.7727C63.0679 20.9429 63.0866 21.1173 63.0742 21.2875C63.0285 21.9705 63.3685 22.1718 64.0132 22.1635C65.9388 22.1365 67.8645 22.2009 69.7881 22.1365C70.9054 22.0992 71.7946 22.396 72.4579 23.3094V28.2708H72.46Z" fill="#383738"/>
<path d="M22.758 86.9221H29.7V87.8061H22.758V86.9221ZM26.229 88.4041C27.893 88.4041 29.037 89.2361 29.037 90.5361C29.037 91.8231 27.893 92.6421 26.229 92.6421C24.539 92.6421 23.408 91.8231 23.408 90.5361C23.408 89.2361 24.539 88.4041 26.229 88.4041ZM26.229 89.2491C25.15 89.2491 24.435 89.7431 24.435 90.5361C24.435 91.3031 25.15 91.8101 26.229 91.8101C27.282 91.8101 28.01 91.3031 28.01 90.5361C28.01 89.7431 27.282 89.2491 26.229 89.2491ZM30.766 85.6871H31.845V93.0321H30.766V85.6871ZM31.546 88.9241H33.587V89.8211H31.546V88.9241ZM24.214 93.6691H31.845V97.4391H30.766V94.5531H24.214V93.6691ZM25.683 85.6221H26.762V87.4161H25.683V85.6221ZM37.564 86.7011H38.448V88.8071C38.448 91.4071 37.044 93.9421 35.185 94.9301L34.522 94.0721C36.225 93.2141 37.564 90.9521 37.564 88.8071V86.7011ZM37.759 86.7011H38.63V88.8071C38.63 90.8741 39.943 93.0191 41.607 93.8511L40.944 94.7091C39.124 93.7341 37.759 91.3291 37.759 88.8071V86.7011ZM42.634 85.6871H43.726V97.4391H42.634V85.6871ZM43.466 90.4451H45.65V91.3551H43.466V90.4451ZM49.939 86.1161C51.694 86.1161 52.981 87.1821 52.981 88.7291C52.981 90.2631 51.694 91.3291 49.939 91.3291C48.197 91.3291 46.91 90.2631 46.91 88.7291C46.91 87.1821 48.197 86.1161 49.939 86.1161ZM49.939 87.0001C48.808 87.0001 47.95 87.7151 47.95 88.7291C47.95 89.7431 48.808 90.4451 49.939 90.4451C51.083 90.4451 51.928 89.7431 51.928 88.7291C51.928 87.7151 51.083 87.0001 49.939 87.0001ZM55.191 85.6871H56.283V91.7061H55.191V85.6871ZM48.678 92.2781H56.283V95.1381H49.757V96.9061H48.704V94.3321H55.217V93.1491H48.678V92.2781ZM48.704 96.4251H56.673V97.2831H48.704V96.4251ZM64.875 88.7291H67.527V89.6261H64.875V88.7291ZM67.189 85.6871H68.268V92.6941H67.189V85.6871ZM64.407 93.0451C66.825 93.0451 68.32 93.8641 68.32 95.2421C68.32 96.6331 66.825 97.4261 64.407 97.4261C61.976 97.4261 60.481 96.6331 60.481 95.2421C60.481 93.8641 61.976 93.0451 64.407 93.0451ZM64.407 93.8901C62.639 93.8901 61.56 94.3841 61.56 95.2421C61.56 96.0871 62.639 96.5811 64.407 96.5811C66.175 96.5811 67.254 96.0871 67.254 95.2421C67.254 94.3841 66.175 93.8901 64.407 93.8901ZM61.599 86.8701H62.483V87.8191C62.483 89.9901 61.157 91.8491 59.207 92.5771L58.648 91.7191C60.39 91.0821 61.599 89.5091 61.599 87.8191V86.8701ZM61.807 86.8701H62.678V87.8191C62.678 89.3401 63.822 90.7961 65.525 91.3941L64.979 92.2521C63.068 91.5631 61.807 89.7951 61.807 87.8191V86.8701ZM58.973 86.5451H65.252V87.4291H58.973V86.5451Z" fill="black"/>
</g>
<defs>
<clipPath id="clip0_14_2838">
<rect width="92" height="111" fill="white"/>
</clipPath>
</defs>
</svg>
